<svg xmlns="http://www.w3.org/2000/svg" id="canvas" viewBox="116.729 306.214 557.991 60.387"><path d="M 120.26,312.88 C 120.08 313.03, 120.04 313.26, 119.93 313.64 C 119.83 314.01, 119.75 314.24, 119.73 314.75 C 119.72 315.26, 119.78 315.63, 119.87 316.18 C 119.96 316.72, 120.03 316.97, 120.18 317.46 C 120.33 317.96, 120.38 318.23, 120.61 318.65 C 120.84 319.06, 121.10 319.41, 121.35 319.53 C 121.60 319.66, 121.80 319.55, 121.87 319.29 C 121.94 319.02, 121.77 318.65, 121.68 318.23 C 121.59 317.81, 121.49 317.62, 121.42 317.17 C 121.34 316.72, 121.36 316.48, 121.31 315.99 C 121.26 315.49, 121.22 315.16, 121.18 314.70 C 121.14 314.24, 121.16 314.05, 121.08 313.69 C 121.01 313.33, 120.98 313.06, 120.81 312.90 C 120.65 312.74, 120.44 312.74, 120.26 312.88" style="stroke: black; fill: black;"/><path d="M 124.37,309.36 C 124.24 309.50, 124.24 309.62, 124.19 309.93 C 124.13 310.24, 124.12 310.42, 124.10 310.91 C 124.07 311.39, 124.05 311.71, 124.07 312.34 C 124.09 312.96, 124.14 313.37, 124.21 314.01 C 124.28 314.66, 124.36 314.96, 124.44 315.57 C 124.52 316.18, 124.51 316.53, 124.62 317.07 C 124.72 317.62, 124.81 317.92, 124.95 318.31 C 125.10 318.70, 125.19 318.91, 125.35 319.04 C 125.51 319.18, 125.64 319.16, 125.76 318.99 C 125.88 318.81, 125.92 318.58, 125.95 318.16 C 125.97 317.75, 125.93 317.45, 125.88 316.90 C 125.84 316.35, 125.77 316.02, 125.71 315.43 C 125.66 314.83, 125.61 314.54, 125.59 313.91 C 125.58 313.29, 125.63 312.92, 125.62 312.30 C 125.62 311.68, 125.64 311.34, 125.57 310.84 C 125.50 310.33, 125.42 310.09, 125.27 309.77 C 125.13 309.46, 125.02 309.34, 124.84 309.25 C 124.66 309.17, 124.50 309.23, 124.37 309.36" style="stroke: black; fill: black;"/><path d="M 153.43,313.25 C 153.27 313.45, 153.23 313.70, 153.16 314.21 C 153.08 314.72, 153.09 315.07, 153.07 315.81 C 153.05 316.55, 153.03 316.99, 153.05 317.90 C 153.08 318.81, 153.13 319.29, 153.18 320.36 C 153.22 321.43, 153.28 322.04, 153.30 323.26 C 153.32 324.47, 153.26 325.14, 153.28 326.43 C 153.29 327.72, 153.34 328.41, 153.37 329.72 C 153.40 331.03, 153.39 331.71, 153.42 332.99 C 153.46 334.27, 153.48 334.93, 153.55 336.12 C 153.62 337.31, 153.67 337.89, 153.78 338.93 C 153.89 339.98, 153.96 340.50, 154.10 341.32 C 154.24 342.15, 154.31 342.54, 154.49 343.07 C 154.68 343.59, 154.78 343.78, 155.03 343.94 C 155.29 344.10, 155.49 344.08, 155.76 343.87 C 156.04 343.66, 156.23 343.40, 156.40 342.88 C 156.58 342.35, 156.59 341.98, 156.64 341.25 C 156.70 340.51, 156.64 340.02, 156.68 339.19 C 156.71 338.36, 156.72 337.91, 156.83 337.10 C 156.95 336.28, 157.01 335.89, 157.25 335.13 C 157.48 334.36, 157.63 334.00, 158.00 333.27 C 158.38 332.54, 158.61 332.14, 159.12 331.48 C 159.63 330.81, 159.92 330.48, 160.55 329.94 C 161.17 329.39, 161.55 329.15, 162.25 328.75 C 162.95 328.35, 163.31 328.13, 164.05 327.92 C 164.80 327.71, 165.21 327.70, 165.97 327.71 C 166.73 327.71, 167.16 327.75, 167.88 327.95 C 168.59 328.14, 168.92 328.27, 169.55 328.69 C 170.19 329.11, 170.51 329.39, 171.05 330.04 C 171.59 330.69, 171.82 331.10, 172.25 331.93 C 172.68 332.77, 172.88 333.29, 173.20 334.23 C 173.52 335.17, 173.66 335.68, 173.85 336.63 C 174.05 337.58, 174.10 338.06, 174.19 338.98 C 174.27 339.90, 174.23 340.39, 174.28 341.23 C 174.33 342.07, 174.38 342.54, 174.46 343.17 C 174.53 343.79, 174.54 343.98, 174.65 344.35 C 174.76 344.71, 174.88 344.88, 175.01 344.99 C 175.15 345.10, 175.25 345.06, 175.32 344.92 C 175.40 344.78, 175.34 344.65, 175.39 344.29 C 175.45 343.93, 175.57 343.75, 175.60 343.13 C 175.63 342.50, 175.58 342.02, 175.55 341.16 C 175.51 340.31, 175.51 339.82, 175.42 338.86 C 175.33 337.91, 175.29 337.39, 175.10 336.38 C 174.91 335.37, 174.79 334.82, 174.45 333.81 C 174.11 332.80, 173.91 332.24, 173.42 331.32 C 172.93 330.41, 172.65 329.95, 172.01 329.22 C 171.36 328.49, 170.97 328.16, 170.21 327.68 C 169.45 327.19, 169.05 327.03, 168.20 326.79 C 167.35 326.55, 166.87 326.49, 165.98 326.48 C 165.09 326.47, 164.60 326.51, 163.73 326.75 C 162.86 326.99, 162.44 327.23, 161.64 327.67 C 160.84 328.12, 160.43 328.38, 159.72 328.99 C 159.02 329.59, 158.67 329.96, 158.11 330.71 C 157.54 331.45, 157.30 331.90, 156.90 332.71 C 156.49 333.52, 156.35 333.92, 156.08 334.75 C 155.80 335.59, 155.70 336.01, 155.53 336.87 C 155.35 337.73, 155.30 338.22, 155.20 339.07 C 155.10 339.93, 155.07 340.43, 155.04 341.15 C 155.00 341.87, 155.01 342.19, 155.04 342.67 C 155.07 343.16, 155.09 343.38, 155.17 343.59 C 155.24 343.79, 155.35 343.85, 155.41 343.71 C 155.48 343.56, 155.52 343.37, 155.49 342.86 C 155.46 342.35, 155.36 341.96, 155.26 341.15 C 155.17 340.34, 155.09 339.84, 154.99 338.81 C 154.90 337.79, 154.85 337.22, 154.79 336.05 C 154.73 334.88, 154.72 334.23, 154.70 332.96 C 154.67 331.69, 154.68 331.00, 154.66 329.70 C 154.64 328.39, 154.61 327.71, 154.61 326.42 C 154.61 325.13, 154.68 324.46, 154.66 323.24 C 154.65 322.01, 154.58 321.37, 154.54 320.30 C 154.50 319.23, 154.47 318.78, 154.46 317.88 C 154.46 316.98, 154.53 316.54, 154.50 315.80 C 154.47 315.05, 154.41 314.68, 154.30 314.17 C 154.18 313.65, 154.11 313.41, 153.93 313.22 C 153.76 313.04, 153.58 313.05, 153.43 313.25" style="stroke: black; fill: black;"/><path d="M 192.21,330.13 C 192.12 329.86, 191.88 329.57, 191.46 329.25 C 191.04 328.94, 190.75 328.78, 190.12 328.57 C 189.49 328.35, 189.09 328.23, 188.31 328.19 C 187.54 328.15, 187.10 328.20, 186.25 328.37 C 185.39 328.53, 184.94 328.68, 184.06 329.01 C 183.17 329.34, 182.66 329.54, 181.81 330.04 C 180.96 330.54, 180.53 330.85, 179.80 331.51 C 179.07 332.17, 178.71 332.57, 178.17 333.34 C 177.62 334.10, 177.37 334.49, 177.05 335.33 C 176.74 336.17, 176.64 336.67, 176.61 337.55 C 176.57 338.43, 176.60 338.86, 176.87 339.71 C 177.15 340.56, 177.35 341.04, 177.97 341.80 C 178.58 342.56, 179.02 342.93, 179.93 343.51 C 180.84 344.08, 181.41 344.35, 182.51 344.66 C 183.61 344.97, 184.22 345.01, 185.42 345.06 C 186.62 345.10, 187.31 345.06, 188.51 344.87 C 189.71 344.68, 190.34 344.53, 191.44 344.11 C 192.54 343.70, 193.07 343.37, 194.00 342.80 C 194.94 342.23, 195.38 341.94, 196.10 341.26 C 196.82 340.57, 197.13 340.15, 197.60 339.37 C 198.07 338.59, 198.25 338.15, 198.46 337.36 C 198.68 336.58, 198.69 336.22, 198.65 335.46 C 198.62 334.70, 198.54 334.27, 198.30 333.58 C 198.06 332.89, 197.82 332.52, 197.46 332.00 C 197.09 331.48, 196.84 331.28, 196.47 330.98 C 196.10 330.68, 195.85 330.54, 195.61 330.51 C 195.38 330.48, 195.28 330.59, 195.30 330.82 C 195.33 331.04, 195.51 331.25, 195.73 331.63 C 195.94 332.00, 196.12 332.22, 196.40 332.69 C 196.69 333.17, 196.92 333.44, 197.15 334.00 C 197.37 334.57, 197.47 334.91, 197.52 335.53 C 197.56 336.14, 197.56 336.42, 197.38 337.06 C 197.19 337.71, 197.01 338.09, 196.60 338.76 C 196.18 339.42, 195.94 339.80, 195.30 340.40 C 194.65 341.00, 194.23 341.25, 193.37 341.75 C 192.51 342.26, 192.01 342.56, 191.00 342.93 C 189.99 343.30, 189.42 343.42, 188.31 343.59 C 187.21 343.75, 186.56 343.79, 185.47 343.75 C 184.38 343.72, 183.83 343.68, 182.86 343.41 C 181.89 343.14, 181.41 342.88, 180.62 342.40 C 179.83 341.92, 179.44 341.62, 178.92 341.01 C 178.39 340.40, 178.22 340.03, 177.99 339.35 C 177.76 338.67, 177.74 338.32, 177.78 337.60 C 177.81 336.88, 177.89 336.46, 178.17 335.75 C 178.44 335.05, 178.65 334.72, 179.15 334.06 C 179.65 333.41, 179.99 333.05, 180.65 332.47 C 181.32 331.90, 181.70 331.62, 182.47 331.18 C 183.25 330.74, 183.72 330.57, 184.53 330.27 C 185.33 329.97, 185.76 329.82, 186.50 329.68 C 187.24 329.53, 187.60 329.50, 188.24 329.54 C 188.88 329.57, 189.19 329.70, 189.72 329.85 C 190.25 329.99, 190.47 330.13, 190.90 330.28 C 191.33 330.43, 191.62 330.63, 191.88 330.60 C 192.15 330.57, 192.29 330.40, 192.21 330.13" style="stroke: black; fill: black;"/><path d="M 204.97,329.31 C 204.79 329.39, 204.71 329.49, 204.56 329.81 C 204.41 330.13, 204.29 330.36, 204.24 330.92 C 204.19 331.48, 204.25 331.91, 204.31 332.61 C 204.37 333.31, 204.45 333.66, 204.55 334.42 C 204.65 335.18, 204.67 335.61, 204.80 336.42 C 204.93 337.23, 205.06 337.70, 205.19 338.48 C 205.31 339.26, 205.32 339.64, 205.43 340.32 C 205.54 341.00, 205.56 341.36, 205.73 341.89 C 205.91 342.41, 206.05 342.71, 206.32 342.94 C 206.59 343.16, 206.80 343.16, 207.08 343.01 C 207.36 342.87, 207.50 342.67, 207.70 342.20 C 207.90 341.72, 207.96 341.36, 208.06 340.63 C 208.16 339.91, 208.13 339.42, 208.19 338.57 C 208.24 337.72, 208.24 337.25, 208.34 336.38 C 208.44 335.52, 208.50 335.05, 208.69 334.25 C 208.89 333.46, 209.01 333.12, 209.31 332.42 C 209.62 331.72, 209.82 331.34, 210.23 330.76 C 210.64 330.18, 210.87 329.94, 211.37 329.52 C 211.87 329.10, 212.18 328.89, 212.73 328.66 C 213.28 328.43, 213.54 328.37, 214.10 328.36 C 214.67 328.36, 215.03 328.42, 215.57 328.64 C 216.12 328.86, 216.33 329.01, 216.83 329.48 C 217.33 329.94, 217.63 330.30, 218.09 330.97 C 218.54 331.65, 218.79 332.02, 219.11 332.85 C 219.42 333.68, 219.50 334.22, 219.65 335.13 C 219.81 336.03, 219.87 336.46, 219.90 337.37 C 219.92 338.29, 219.83 338.85, 219.78 339.69 C 219.72 340.53, 219.59 340.94, 219.62 341.57 C 219.65 342.19, 219.73 342.53, 219.93 342.81 C 220.12 343.09, 220.30 343.09, 220.59 342.96 C 220.87 342.83, 221.04 342.69, 221.34 342.17 C 221.64 341.65, 221.80 341.17, 222.08 340.35 C 222.37 339.53, 222.43 338.96, 222.76 338.06 C 223.08 337.16, 223.27 336.70, 223.71 335.83 C 224.14 334.97, 224.40 334.53, 224.94 333.75 C 225.49 332.97, 225.81 332.59, 226.43 331.92 C 227.06 331.25, 227.43 330.93, 228.06 330.39 C 228.69 329.85, 229.00 329.57, 229.60 329.22 C 230.20 328.86, 230.51 328.74, 231.07 328.63 C 231.63 328.51, 231.90 328.54, 232.41 328.65 C 232.91 328.77, 233.16 328.87, 233.58 329.20 C 234.00 329.52, 234.19 329.74, 234.52 330.28 C 234.86 330.81, 234.98 331.17, 235.26 331.88 C 235.53 332.59, 235.69 333.01, 235.90 333.84 C 236.11 334.66, 236.12 335.13, 236.32 336.02 C 236.52 336.90, 236.68 337.44, 236.90 338.28 C 237.12 339.11, 237.19 339.44, 237.41 340.19 C 237.63 340.93, 237.70 341.35, 238.01 341.99 C 238.32 342.64, 238.60 342.95, 238.97 343.42 C 239.34 343.88, 239.50 344.07, 239.84 344.33 C 240.19 344.60, 240.47 344.72, 240.70 344.73 C 240.92 344.74, 241.01 344.60, 240.97 344.40 C 240.94 344.19, 240.73 344.04, 240.53 343.70 C 240.32 343.37, 240.22 343.17, 239.93 342.72 C 239.64 342.28, 239.35 342.05, 239.07 341.48 C 238.80 340.91, 238.73 340.57, 238.55 339.87 C 238.36 339.17, 238.32 338.80, 238.14 337.98 C 237.96 337.15, 237.82 336.62, 237.63 335.73 C 237.44 334.83, 237.42 334.37, 237.19 333.50 C 236.96 332.63, 236.82 332.17, 236.49 331.39 C 236.16 330.60, 236.00 330.21, 235.56 329.58 C 235.11 328.96, 234.84 328.67, 234.26 328.26 C 233.67 327.86, 233.32 327.72, 232.64 327.57 C 231.96 327.43, 231.58 327.42, 230.86 327.54 C 230.14 327.67, 229.76 327.82, 229.04 328.20 C 228.32 328.58, 227.98 328.87, 227.28 329.45 C 226.57 330.02, 226.19 330.35, 225.52 331.06 C 224.84 331.78, 224.50 332.19, 223.91 333.02 C 223.32 333.85, 223.06 334.32, 222.55 335.21 C 222.04 336.11, 221.80 336.58, 221.38 337.50 C 220.96 338.42, 220.72 338.97, 220.45 339.82 C 220.19 340.67, 220.11 341.17, 220.06 341.75 C 220.00 342.33, 220.08 342.52, 220.17 342.72 C 220.27 342.91, 220.39 342.95, 220.52 342.73 C 220.64 342.52, 220.70 342.23, 220.81 341.64 C 220.92 341.06, 221.00 340.65, 221.07 339.79 C 221.15 338.93, 221.22 338.31, 221.19 337.34 C 221.16 336.36, 221.09 335.90, 220.93 334.91 C 220.76 333.92, 220.71 333.32, 220.36 332.38 C 220.01 331.44, 219.72 330.99, 219.18 330.22 C 218.63 329.45, 218.29 329.08, 217.65 328.54 C 217.02 328.01, 216.71 327.82, 216.00 327.55 C 215.29 327.28, 214.84 327.18, 214.10 327.19 C 213.35 327.19, 212.99 327.30, 212.29 327.58 C 211.59 327.86, 211.21 328.09, 210.60 328.59 C 209.99 329.09, 209.73 329.40, 209.25 330.06 C 208.77 330.73, 208.56 331.15, 208.20 331.92 C 207.85 332.70, 207.72 333.08, 207.48 333.93 C 207.24 334.78, 207.14 335.29, 206.99 336.18 C 206.83 337.08, 206.80 337.56, 206.69 338.42 C 206.58 339.28, 206.49 339.75, 206.44 340.47 C 206.39 341.18, 206.39 341.54, 206.44 342.00 C 206.49 342.46, 206.57 342.63, 206.68 342.76 C 206.78 342.88, 206.91 342.85, 206.95 342.62 C 207.00 342.39, 206.95 342.11, 206.89 341.62 C 206.83 341.12, 206.73 340.82, 206.65 340.15 C 206.58 339.48, 206.60 339.07, 206.50 338.29 C 206.40 337.50, 206.26 337.02, 206.14 336.21 C 206.03 335.41, 205.98 335.01, 205.92 334.27 C 205.85 333.53, 205.87 333.17, 205.84 332.50 C 205.80 331.83, 205.80 331.43, 205.75 330.92 C 205.70 330.41, 205.66 330.25, 205.60 329.95 C 205.53 329.65, 205.55 329.54, 205.43 329.42 C 205.30 329.29, 205.14 329.23, 204.97 329.31" style="stroke: black; fill: black;"/><path d="M 245.96,337.45 C 246.17 337.49, 246.30 337.39, 246.65 337.25 C 247.00 337.11, 247.22 337.02, 247.71 336.75 C 248.19 336.48, 248.50 336.27, 249.08 335.90 C 249.65 335.52, 249.99 335.32, 250.57 334.88 C 251.15 334.44, 251.46 334.15, 251.98 333.67 C 252.51 333.20, 252.76 332.97, 253.19 332.50 C 253.62 332.03, 253.87 331.80, 254.14 331.34 C 254.42 330.88, 254.50 330.62, 254.55 330.19 C 254.59 329.77, 254.55 329.56, 254.38 329.20 C 254.20 328.84, 254.06 328.63, 253.66 328.41 C 253.27 328.18, 252.98 328.07, 252.41 328.07 C 251.84 328.07, 251.48 328.16, 250.83 328.38 C 250.17 328.60, 249.84 328.78, 249.15 329.16 C 248.46 329.55, 248.09 329.77, 247.37 330.30 C 246.65 330.82, 246.21 331.14, 245.55 331.78 C 244.88 332.42, 244.58 332.78, 244.05 333.49 C 243.51 334.20, 243.23 334.57, 242.88 335.33 C 242.53 336.08, 242.41 336.49, 242.30 337.25 C 242.19 338.02, 242.21 338.41, 242.33 339.13 C 242.45 339.85, 242.51 340.21, 242.90 340.87 C 243.28 341.53, 243.59 341.88, 244.26 342.43 C 244.93 342.98, 245.34 343.22, 246.25 343.63 C 247.15 344.03, 247.64 344.19, 248.77 344.46 C 249.91 344.72, 250.59 344.82, 251.92 344.94 C 253.26 345.07, 253.99 345.09, 255.44 345.08 C 256.89 345.07, 257.81 345.02, 259.17 344.88 C 260.52 344.74, 261.23 344.58, 262.21 344.36 C 263.18 344.15, 263.68 343.99, 264.04 343.79 C 264.39 343.60, 264.37 343.48, 263.98 343.39 C 263.59 343.30, 263.07 343.33, 262.08 343.35 C 261.10 343.37, 260.39 343.44, 259.06 343.50 C 257.73 343.56, 256.83 343.66, 255.42 343.67 C 254.02 343.69, 253.32 343.69, 252.04 343.58 C 250.77 343.48, 250.12 343.38, 249.06 343.15 C 248.01 342.92, 247.57 342.78, 246.76 342.44 C 245.96 342.10, 245.61 341.88, 245.04 341.44 C 244.46 341.01, 244.20 340.77, 243.88 340.27 C 243.56 339.77, 243.53 339.52, 243.44 338.95 C 243.35 338.39, 243.34 338.05, 243.45 337.43 C 243.55 336.81, 243.64 336.48, 243.96 335.85 C 244.28 335.21, 244.54 334.89, 245.04 334.27 C 245.54 333.65, 245.84 333.34, 246.47 332.77 C 247.09 332.20, 247.51 331.90, 248.18 331.42 C 248.85 330.94, 249.20 330.71, 249.82 330.37 C 250.44 330.03, 250.75 329.91, 251.29 329.72 C 251.83 329.52, 252.11 329.46, 252.50 329.40 C 252.89 329.33, 253.02 329.34, 253.24 329.38 C 253.46 329.42, 253.52 329.48, 253.60 329.60 C 253.68 329.73, 253.70 329.80, 253.63 330.02 C 253.55 330.24, 253.47 330.38, 253.21 330.70 C 252.94 331.02, 252.72 331.23, 252.30 331.63 C 251.88 332.03, 251.63 332.27, 251.13 332.70 C 250.62 333.12, 250.33 333.37, 249.76 333.76 C 249.19 334.15, 248.84 334.28, 248.27 334.64 C 247.70 334.99, 247.37 335.18, 246.91 335.52 C 246.45 335.87, 246.24 336.04, 245.99 336.35 C 245.73 336.66, 245.63 336.85, 245.63 337.07 C 245.62 337.29, 245.76 337.42, 245.96 337.45" style="stroke: black; fill: black;"/><path d="M 305.46,331.81 C 305.57 331.61, 305.56 331.37, 305.49 331.04 C 305.42 330.71, 305.35 330.49, 305.10 330.14 C 304.84 329.79, 304.64 329.56, 304.20 329.29 C 303.76 329.01, 303.50 328.91, 302.89 328.77 C 302.28 328.63, 301.90 328.60, 301.16 328.60 C 300.41 328.61, 300.01 328.64, 299.17 328.80 C 298.33 328.96, 297.85 329.09, 296.96 329.40 C 296.06 329.72, 295.58 329.93, 294.71 330.36 C 293.84 330.80, 293.39 331.05, 292.60 331.59 C 291.82 332.13, 291.44 332.42, 290.78 333.05 C 290.13 333.68, 289.79 334.03, 289.32 334.75 C 288.84 335.48, 288.63 335.87, 288.40 336.68 C 288.17 337.48, 288.10 337.98, 288.16 338.78 C 288.22 339.58, 288.35 339.98, 288.69 340.68 C 289.02 341.38, 289.28 341.70, 289.84 342.28 C 290.40 342.86, 290.74 343.18, 291.50 343.57 C 292.26 343.96, 292.74 344.08, 293.64 344.23 C 294.55 344.38, 295.04 344.39, 296.02 344.32 C 296.99 344.25, 297.55 344.14, 298.53 343.87 C 299.52 343.60, 300.02 343.41, 300.94 342.98 C 301.86 342.54, 302.32 342.26, 303.13 341.68 C 303.94 341.11, 304.37 340.78, 304.99 340.08 C 305.61 339.38, 305.84 338.98, 306.24 338.20 C 306.64 337.42, 306.79 336.97, 307.00 336.17 C 307.21 335.37, 307.24 334.97, 307.30 334.20 C 307.36 333.43, 307.38 333.03, 307.32 332.32 C 307.26 331.60, 307.20 331.15, 307.00 330.64 C 306.80 330.14, 306.59 329.91, 306.32 329.78 C 306.05 329.65, 305.83 329.71, 305.64 330.00 C 305.45 330.28, 305.38 330.57, 305.38 331.19 C 305.37 331.82, 305.42 332.29, 305.61 333.13 C 305.80 333.96, 306.01 334.47, 306.33 335.37 C 306.65 336.27, 306.83 336.74, 307.21 337.61 C 307.60 338.48, 307.79 338.94, 308.25 339.71 C 308.70 340.48, 309.01 340.88, 309.49 341.47 C 309.98 342.06, 310.23 342.31, 310.67 342.65 C 311.11 343.00, 311.43 343.15, 311.69 343.19 C 311.95 343.24, 312.03 343.12, 311.97 342.88 C 311.90 342.64, 311.66 342.42, 311.36 342.00 C 311.06 341.57, 310.87 341.32, 310.47 340.73 C 310.07 340.15, 309.76 339.80, 309.35 339.07 C 308.94 338.35, 308.76 337.93, 308.43 337.10 C 308.11 336.27, 307.96 335.80, 307.72 334.93 C 307.48 334.06, 307.42 333.54, 307.24 332.75 C 307.06 331.96, 307.01 331.52, 306.81 330.97 C 306.62 330.41, 306.47 330.19, 306.28 330.00 C 306.10 329.81, 305.98 329.83, 305.88 330.02 C 305.78 330.20, 305.76 330.45, 305.79 330.93 C 305.82 331.41, 305.98 331.79, 306.05 332.43 C 306.11 333.07, 306.13 333.43, 306.09 334.12 C 306.05 334.80, 306.02 335.16, 305.84 335.87 C 305.66 336.58, 305.53 336.98, 305.18 337.66 C 304.83 338.34, 304.65 338.67, 304.10 339.27 C 303.54 339.87, 303.15 340.15, 302.41 340.66 C 301.67 341.17, 301.24 341.43, 300.40 341.82 C 299.56 342.21, 299.09 342.37, 298.19 342.61 C 297.29 342.85, 296.78 342.95, 295.91 343.02 C 295.04 343.09, 294.61 343.09, 293.84 342.98 C 293.07 342.86, 292.69 342.76, 292.06 342.45 C 291.43 342.14, 291.17 341.88, 290.70 341.43 C 290.24 340.97, 290.01 340.71, 289.73 340.17 C 289.46 339.62, 289.37 339.33, 289.33 338.70 C 289.30 338.07, 289.35 337.67, 289.55 337.01 C 289.74 336.36, 289.89 336.03, 290.31 335.41 C 290.72 334.80, 291.02 334.49, 291.62 333.94 C 292.22 333.39, 292.57 333.12, 293.31 332.64 C 294.04 332.17, 294.48 331.95, 295.30 331.56 C 296.12 331.17, 296.58 330.98, 297.40 330.69 C 298.23 330.41, 298.67 330.29, 299.43 330.15 C 300.18 330.01, 300.54 330.00, 301.18 329.98 C 301.82 329.97, 302.16 329.99, 302.64 330.07 C 303.11 330.14, 303.27 330.19, 303.55 330.36 C 303.84 330.52, 303.89 330.67, 304.06 330.90 C 304.22 331.13, 304.22 331.30, 304.40 331.52 C 304.57 331.74, 304.71 331.96, 304.92 332.01 C 305.13 332.07, 305.34 332.00, 305.46 331.81" style="stroke: black; fill: black;"/><path d="M 317.40,330.28 C 317.22 330.42, 317.13 330.64, 317.01 331.06 C 316.89 331.47, 316.84 331.73, 316.81 332.35 C 316.78 332.97, 316.77 333.41, 316.86 334.15 C 316.94 334.88, 317.05 335.26, 317.24 336.02 C 317.42 336.77, 317.53 337.19, 317.78 337.92 C 318.03 338.64, 318.17 339.04, 318.49 339.64 C 318.81 340.24, 318.99 340.48, 319.37 340.92 C 319.76 341.37, 319.96 341.57, 320.43 341.88 C 320.90 342.19, 321.18 342.32, 321.71 342.46 C 322.24 342.60, 322.54 342.64, 323.08 342.58 C 323.63 342.51, 323.90 342.40, 324.43 342.13 C 324.96 341.86, 325.24 341.66, 325.73 341.23 C 326.21 340.79, 326.47 340.52, 326.86 339.96 C 327.24 339.39, 327.37 339.02, 327.66 338.41 C 327.96 337.79, 328.10 337.49, 328.33 336.90 C 328.56 336.30, 328.68 335.99, 328.81 335.43 C 328.94 334.87, 328.99 334.53, 328.96 334.10 C 328.94 333.66, 328.84 333.43, 328.70 333.26 C 328.55 333.09, 328.37 333.11, 328.24 333.24 C 328.11 333.37, 328.04 333.53, 328.05 333.93 C 328.06 334.32, 328.06 334.65, 328.28 335.22 C 328.50 335.78, 328.76 336.14, 329.14 336.75 C 329.52 337.35, 329.73 337.67, 330.17 338.24 C 330.62 338.81, 330.85 339.09, 331.36 339.60 C 331.87 340.12, 332.17 340.35, 332.72 340.80 C 333.28 341.25, 333.55 341.50, 334.15 341.85 C 334.75 342.20, 335.13 342.33, 335.74 342.54 C 336.35 342.75, 336.62 342.82, 337.20 342.88 C 337.79 342.95, 338.09 342.97, 338.65 342.88 C 339.22 342.80, 339.52 342.72, 340.02 342.47 C 340.52 342.22, 340.73 342.06, 341.14 341.64 C 341.55 341.22, 341.80 340.95, 342.09 340.37 C 342.37 339.79, 342.46 339.43, 342.57 338.73 C 342.67 338.03, 342.66 337.62, 342.61 336.86 C 342.55 336.10, 342.51 335.68, 342.31 334.91 C 342.11 334.14, 341.91 333.74, 341.61 333.02 C 341.30 332.30, 341.10 331.91, 340.78 331.31 C 340.47 330.70, 340.29 330.44, 340.04 330.00 C 339.80 329.56, 339.72 329.35, 339.56 329.11 C 339.40 328.87, 339.30 328.87, 339.22 328.81 C 339.15 328.74, 339.20 328.81, 339.17 328.78 C 339.14 328.74, 339.15 328.64, 339.07 328.65 C 339.00 328.65, 338.87 328.64, 338.79 328.80 C 338.71 328.95, 338.63 329.08, 338.67 329.42 C 338.70 329.76, 338.79 330.01, 338.98 330.50 C 339.18 330.99, 339.35 331.26, 339.63 331.87 C 339.91 332.48, 340.10 332.86, 340.38 333.54 C 340.67 334.21, 340.86 334.56, 341.04 335.24 C 341.22 335.92, 341.24 336.29, 341.28 336.95 C 341.33 337.61, 341.34 337.98, 341.27 338.56 C 341.20 339.13, 341.15 339.38, 340.95 339.83 C 340.74 340.29, 340.55 340.50, 340.27 340.82 C 339.98 341.14, 339.86 341.26, 339.51 341.45 C 339.15 341.63, 338.92 341.67, 338.49 341.73 C 338.06 341.79, 337.82 341.82, 337.35 341.75 C 336.88 341.68, 336.67 341.60, 336.15 341.40 C 335.64 341.21, 335.32 341.08, 334.79 340.76 C 334.26 340.44, 334.01 340.23, 333.51 339.82 C 333.00 339.41, 332.72 339.20, 332.26 338.73 C 331.81 338.25, 331.61 338.01, 331.25 337.46 C 330.89 336.92, 330.75 336.59, 330.46 336.01 C 330.18 335.43, 330.06 335.06, 329.83 334.56 C 329.59 334.05, 329.52 333.80, 329.27 333.49 C 329.03 333.18, 328.85 333.07, 328.60 333.01 C 328.35 332.95, 328.20 333.01, 328.02 333.21 C 327.85 333.40, 327.82 333.61, 327.74 334.00 C 327.65 334.39, 327.72 334.67, 327.60 335.15 C 327.49 335.64, 327.38 335.89, 327.15 336.43 C 326.93 336.96, 326.76 337.27, 326.48 337.82 C 326.20 338.38, 326.08 338.72, 325.75 339.20 C 325.42 339.69, 325.21 339.89, 324.83 340.26 C 324.44 340.63, 324.20 340.82, 323.82 341.06 C 323.44 341.30, 323.30 341.40, 322.94 341.45 C 322.57 341.50, 322.39 341.43, 322.01 341.32 C 321.63 341.22, 321.39 341.15, 321.03 340.93 C 320.67 340.71, 320.50 340.59, 320.21 340.23 C 319.92 339.87, 319.81 339.66, 319.58 339.12 C 319.35 338.57, 319.25 338.19, 319.05 337.51 C 318.84 336.83, 318.72 336.42, 318.57 335.72 C 318.43 335.01, 318.38 334.67, 318.32 334.00 C 318.26 333.32, 318.31 332.92, 318.28 332.34 C 318.24 331.76, 318.20 331.52, 318.13 331.12 C 318.05 330.72, 318.06 330.50, 317.91 330.34 C 317.77 330.17, 317.58 330.14, 317.40 330.28" style="stroke: black; fill: black;"/><path d="M 357.11,331.29 C 357.12 331.05, 356.98 330.81, 356.75 330.47 C 356.52 330.14, 356.36 329.92, 355.96 329.61 C 355.55 329.29, 355.24 329.11, 354.71 328.89 C 354.18 328.68, 353.89 328.64, 353.31 328.55 C 352.74 328.46, 352.45 328.42, 351.82 328.45 C 351.20 328.48, 350.86 328.52, 350.19 328.71 C 349.51 328.89, 349.12 329.03, 348.45 329.40 C 347.79 329.77, 347.48 330.03, 346.87 330.55 C 346.25 331.07, 345.92 331.35, 345.38 332.01 C 344.85 332.66, 344.54 333.05, 344.18 333.83 C 343.82 334.60, 343.69 335.06, 343.58 335.87 C 343.46 336.69, 343.48 337.11, 343.62 337.88 C 343.75 338.65, 343.87 339.05, 344.25 339.74 C 344.63 340.43, 344.90 340.78, 345.50 341.32 C 346.10 341.86, 346.50 342.12, 347.26 342.45 C 348.02 342.78, 348.44 342.89, 349.31 342.99 C 350.18 343.09, 350.69 343.05, 351.63 342.95 C 352.57 342.84, 353.09 342.76, 354.01 342.45 C 354.93 342.14, 355.42 341.89, 356.24 341.40 C 357.05 340.91, 357.44 340.60, 358.10 340.00 C 358.76 339.39, 359.04 339.04, 359.52 338.38 C 360.00 337.72, 360.21 337.38, 360.50 336.70 C 360.79 336.03, 360.88 335.69, 360.99 335.01 C 361.09 334.33, 361.11 333.93, 361.03 333.31 C 360.95 332.68, 360.82 332.27, 360.57 331.87 C 360.31 331.47, 360.08 331.32, 359.77 331.30 C 359.46 331.28, 359.23 331.41, 359.00 331.77 C 358.77 332.13, 358.64 332.46, 358.61 333.12 C 358.58 333.77, 358.67 334.26, 358.85 335.06 C 359.02 335.86, 359.20 336.30, 359.49 337.10 C 359.79 337.90, 359.95 338.31, 360.31 339.05 C 360.67 339.80, 360.87 340.15, 361.31 340.81 C 361.75 341.47, 361.98 341.80, 362.50 342.36 C 363.02 342.92, 363.31 343.20, 363.93 343.59 C 364.55 343.99, 364.91 344.14, 365.60 344.33 C 366.30 344.53, 366.66 344.56, 367.39 344.55 C 368.12 344.53, 368.53 344.48, 369.24 344.25 C 369.95 344.02, 370.33 343.82, 370.94 343.39 C 371.55 342.96, 371.88 342.70, 372.30 342.09 C 372.72 341.49, 373.01 340.79, 373.05 340.37 C 373.09 339.96, 372.86 339.84, 372.51 340.03 C 372.17 340.21, 371.79 340.83, 371.33 341.30 C 370.87 341.77, 370.72 342.03, 370.22 342.38 C 369.73 342.73, 369.43 342.87, 368.86 343.06 C 368.28 343.25, 367.94 343.30, 367.35 343.33 C 366.76 343.36, 366.46 343.35, 365.91 343.20 C 365.36 343.05, 365.08 342.93, 364.58 342.60 C 364.07 342.26, 363.83 342.03, 363.39 341.54 C 362.94 341.05, 362.72 340.75, 362.34 340.14 C 361.95 339.54, 361.77 339.22, 361.46 338.52 C 361.16 337.82, 361.04 337.42, 360.83 336.67 C 360.62 335.91, 360.55 335.46, 360.41 334.73 C 360.26 334.01, 360.22 333.58, 360.12 333.03 C 360.02 332.47, 359.99 332.24, 359.90 331.96 C 359.81 331.69, 359.73 331.59, 359.66 331.65 C 359.58 331.70, 359.49 331.88, 359.51 332.24 C 359.53 332.61, 359.68 332.95, 359.75 333.47 C 359.81 334.00, 359.90 334.30, 359.84 334.86 C 359.78 335.41, 359.71 335.68, 359.45 336.24 C 359.20 336.80, 359.00 337.10, 358.56 337.67 C 358.13 338.24, 357.87 338.56, 357.27 339.08 C 356.68 339.61, 356.33 339.88, 355.59 340.30 C 354.86 340.73, 354.43 340.93, 353.60 341.20 C 352.78 341.47, 352.30 341.54, 351.47 341.65 C 350.63 341.75, 350.18 341.81, 349.44 341.75 C 348.69 341.68, 348.37 341.59, 347.75 341.32 C 347.13 341.05, 346.82 340.83, 346.33 340.39 C 345.83 339.96, 345.60 339.70, 345.29 339.16 C 344.98 338.62, 344.88 338.30, 344.78 337.68 C 344.68 337.06, 344.67 336.72, 344.78 336.06 C 344.89 335.40, 345.01 335.03, 345.33 334.38 C 345.66 333.74, 345.91 333.40, 346.39 332.84 C 346.86 332.27, 347.17 332.00, 347.71 331.54 C 348.25 331.09, 348.52 330.86, 349.09 330.54 C 349.66 330.23, 349.99 330.13, 350.55 329.95 C 351.11 329.78, 351.39 329.72, 351.89 329.69 C 352.40 329.65, 352.64 329.69, 353.09 329.79 C 353.55 329.88, 353.77 329.97, 354.18 330.15 C 354.59 330.34, 354.80 330.49, 355.15 330.72 C 355.50 330.96, 355.61 331.13, 355.92 331.32 C 356.23 331.51, 356.46 331.69, 356.70 331.69 C 356.94 331.68, 357.10 331.54, 357.11 331.29" style="stroke: black; fill: black;"/><path d="M 372.76,328.27 C 372.61 328.41, 372.55 328.56, 372.51 328.91 C 372.46 329.26, 372.46 329.52, 372.54 330.02 C 372.62 330.51, 372.72 330.80, 372.93 331.38 C 373.14 331.96, 373.27 332.28, 373.57 332.92 C 373.88 333.56, 374.08 333.90, 374.45 334.58 C 374.83 335.26, 375.01 335.62, 375.45 336.31 C 375.88 337.00, 376.10 337.37, 376.62 338.03 C 377.14 338.69, 377.44 339.03, 378.04 339.60 C 378.64 340.17, 378.97 340.44, 379.61 340.87 C 380.25 341.31, 380.55 341.51, 381.25 341.78 C 381.95 342.05, 382.39 342.17, 383.12 342.22 C 383.85 342.27, 384.22 342.20, 384.90 342.03 C 385.58 341.87, 385.90 341.75, 386.52 341.39 C 387.15 341.04, 387.51 340.81, 388.02 340.26 C 388.52 339.71, 388.70 339.33, 389.05 338.63 C 389.39 337.94, 389.53 337.56, 389.74 336.78 C 389.95 336.00, 390.03 335.53, 390.10 334.73 C 390.17 333.93, 390.12 333.48, 390.09 332.78 C 390.07 332.09, 390.07 331.82, 389.96 331.24 C 389.86 330.67, 389.82 330.28, 389.56 329.93 C 389.31 329.57, 389.03 329.41, 388.69 329.46 C 388.36 329.51, 388.13 329.74, 387.90 330.17 C 387.67 330.59, 387.60 330.88, 387.56 331.58 C 387.52 332.28, 387.55 332.74, 387.70 333.67 C 387.85 334.61, 387.97 335.17, 388.29 336.25 C 388.60 337.32, 388.88 337.91, 389.28 339.06 C 389.69 340.21, 389.89 340.78, 390.31 342.00 C 390.72 343.23, 390.93 343.90, 391.34 345.16 C 391.75 346.42, 391.98 347.08, 392.36 348.31 C 392.74 349.54, 392.95 350.15, 393.24 351.31 C 393.53 352.47, 393.67 353.04, 393.82 354.10 C 393.98 355.15, 394.02 355.66, 394.01 356.58 C 394.00 357.49, 393.95 357.92, 393.79 358.66 C 393.63 359.41, 393.53 359.75, 393.19 360.31 C 392.84 360.86, 392.63 361.09, 392.05 361.44 C 391.47 361.79, 391.13 361.90, 390.29 362.06 C 389.46 362.22, 388.94 362.26, 387.88 362.25 C 386.83 362.25, 386.24 362.21, 385.02 362.04 C 383.81 361.87, 383.15 361.74, 381.83 361.40 C 380.50 361.07, 379.74 360.86, 378.38 360.38 C 377.01 359.90, 376.30 359.63, 375.00 359.03 C 373.69 358.42, 373.00 358.08, 371.85 357.36 C 370.71 356.64, 370.15 356.24, 369.29 355.44 C 368.42 354.65, 368.05 354.21, 367.53 353.39 C 367.01 352.57, 366.91 352.09, 366.70 351.33 C 366.48 350.56, 366.50 350.17, 366.43 349.56 C 366.36 348.95, 366.46 348.56, 366.35 348.29 C 366.25 348.03, 366.10 347.98, 365.92 348.23 C 365.75 348.49, 365.55 348.89, 365.49 349.56 C 365.42 350.24, 365.39 350.73, 365.60 351.61 C 365.82 352.50, 365.98 353.05, 366.55 353.99 C 367.13 354.93, 367.54 355.43, 368.46 356.32 C 369.39 357.20, 369.98 357.64, 371.18 358.42 C 372.37 359.20, 373.10 359.56, 374.45 360.20 C 375.80 360.84, 376.53 361.13, 377.94 361.63 C 379.35 362.13, 380.12 362.36, 381.50 362.71 C 382.88 363.06, 383.56 363.19, 384.84 363.37 C 386.12 363.55, 386.75 363.61, 387.89 363.60 C 389.04 363.58, 389.62 363.53, 390.57 363.29 C 391.53 363.04, 391.96 362.86, 392.66 362.38 C 393.37 361.90, 393.66 361.58, 394.10 360.89 C 394.54 360.20, 394.66 359.78, 394.88 358.92 C 395.09 358.06, 395.14 357.60, 395.17 356.60 C 395.20 355.60, 395.16 355.05, 395.02 353.93 C 394.87 352.82, 394.73 352.21, 394.44 351.01 C 394.16 349.81, 393.95 349.19, 393.58 347.94 C 393.21 346.69, 392.99 346.03, 392.59 344.76 C 392.18 343.49, 391.96 342.82, 391.56 341.59 C 391.15 340.36, 390.94 339.77, 390.57 338.62 C 390.19 337.47, 389.95 336.89, 389.67 335.86 C 389.39 334.82, 389.31 334.30, 389.17 333.44 C 389.04 332.58, 389.04 332.17, 388.99 331.57 C 388.94 330.97, 388.96 330.76, 388.92 330.42 C 388.89 330.08, 388.86 329.91, 388.81 329.88 C 388.77 329.85, 388.69 329.95, 388.69 330.26 C 388.68 330.56, 388.75 330.89, 388.78 331.40 C 388.82 331.91, 388.86 332.16, 388.86 332.80 C 388.85 333.44, 388.83 333.87, 388.76 334.60 C 388.69 335.33, 388.65 335.76, 388.48 336.46 C 388.31 337.15, 388.19 337.49, 387.91 338.08 C 387.63 338.68, 387.49 338.97, 387.09 339.43 C 386.69 339.88, 386.41 340.06, 385.92 340.35 C 385.42 340.64, 385.16 340.76, 384.62 340.89 C 384.08 341.02, 383.80 341.06, 383.21 341.02 C 382.62 340.98, 382.26 340.90, 381.68 340.67 C 381.09 340.44, 380.85 340.29, 380.30 339.89 C 379.75 339.49, 379.46 339.22, 378.93 338.69 C 378.39 338.16, 378.11 337.85, 377.63 337.24 C 377.16 336.63, 376.96 336.29, 376.56 335.63 C 376.17 334.96, 375.99 334.59, 375.64 333.93 C 375.29 333.28, 375.09 332.95, 374.82 332.34 C 374.55 331.74, 374.46 331.45, 374.28 330.92 C 374.11 330.39, 374.07 330.13, 373.94 329.70 C 373.81 329.26, 373.77 329.05, 373.64 328.75 C 373.50 328.45, 373.43 328.31, 373.25 328.21 C 373.08 328.12, 372.90 328.13, 372.76 328.27" style="stroke: black; fill: black;"/><path d="M 429.95,321.38 C 430.09 321.22, 430.08 321.03, 430.11 320.72 C 430.13 320.41, 430.16 320.23, 430.08 319.84 C 429.99 319.45, 429.89 319.17, 429.69 318.78 C 429.49 318.39, 429.36 318.24, 429.07 317.90 C 428.79 317.57, 428.63 317.39, 428.27 317.11 C 427.91 316.82, 427.70 316.71, 427.28 316.49 C 426.85 316.27, 426.65 316.16, 426.14 316.00 C 425.63 315.83, 425.32 315.71, 424.73 315.65 C 424.14 315.59, 423.79 315.62, 423.20 315.69 C 422.60 315.76, 422.30 315.83, 421.75 316.00 C 421.19 316.18, 420.91 316.26, 420.42 316.57 C 419.93 316.88, 419.69 317.09, 419.31 317.55 C 418.93 318.02, 418.78 318.29, 418.52 318.89 C 418.27 319.50, 418.17 319.83, 418.02 320.58 C 417.87 321.34, 417.80 321.77, 417.78 322.67 C 417.76 323.57, 417.81 324.07, 417.93 325.06 C 418.05 326.06, 418.16 326.58, 418.38 327.64 C 418.59 328.70, 418.71 329.24, 419.00 330.37 C 419.30 331.49, 419.50 332.10, 419.85 333.25 C 420.20 334.40, 420.38 334.95, 420.75 336.11 C 421.11 337.26, 421.32 337.87, 421.68 339.02 C 422.03 340.18, 422.21 340.79, 422.53 341.88 C 422.86 342.98, 423.04 343.52, 423.31 344.49 C 423.57 345.46, 423.68 345.97, 423.86 346.75 C 424.04 347.53, 424.11 347.88, 424.22 348.40 C 424.32 348.92, 424.32 349.07, 424.37 349.37 C 424.42 349.67, 424.40 349.78, 424.48 349.89 C 424.56 350.00, 424.66 350.03, 424.77 349.94 C 424.89 349.84, 424.97 349.74, 425.06 349.41 C 425.15 349.09, 425.25 348.88, 425.24 348.29 C 425.23 347.71, 425.16 347.33, 425.01 346.51 C 424.86 345.69, 424.75 345.17, 424.50 344.18 C 424.24 343.18, 424.06 342.63, 423.74 341.53 C 423.42 340.42, 423.26 339.81, 422.90 338.65 C 422.54 337.48, 422.33 336.88, 421.96 335.72 C 421.60 334.57, 421.43 334.01, 421.09 332.88 C 420.75 331.74, 420.56 331.13, 420.28 330.03 C 419.99 328.93, 419.87 328.41, 419.67 327.38 C 419.47 326.36, 419.38 325.84, 419.27 324.90 C 419.16 323.97, 419.12 323.51, 419.13 322.69 C 419.14 321.87, 419.20 321.49, 419.31 320.82 C 419.42 320.15, 419.49 319.85, 419.67 319.35 C 419.85 318.84, 419.95 318.64, 420.23 318.29 C 420.50 317.93, 420.66 317.79, 421.03 317.57 C 421.41 317.35, 421.63 317.31, 422.09 317.19 C 422.55 317.08, 422.83 317.04, 423.33 317.00 C 423.83 316.96, 424.11 316.94, 424.60 316.98 C 425.08 317.03, 425.33 317.10, 425.75 317.23 C 426.17 317.36, 426.36 317.44, 426.71 317.61 C 427.06 317.79, 427.23 317.88, 427.51 318.09 C 427.79 318.30, 427.93 318.42, 428.12 318.68 C 428.31 318.93, 428.34 319.04, 428.46 319.34 C 428.57 319.65, 428.60 319.87, 428.70 320.20 C 428.79 320.52, 428.81 320.69, 428.96 320.95 C 429.10 321.22, 429.21 321.43, 429.40 321.51 C 429.60 321.60, 429.81 321.54, 429.95 321.38" style="stroke: black; fill: black;"/><path d="M 414.45,334.51 C 414.64 334.61, 414.80 334.59, 415.21 334.54 C 415.62 334.49, 415.90 334.41, 416.48 334.27 C 417.07 334.13, 417.39 334.01, 418.15 333.83 C 418.90 333.65, 419.41 333.54, 420.26 333.37 C 421.11 333.21, 421.53 333.14, 422.40 333.01 C 423.26 332.89, 423.79 332.84, 424.59 332.76 C 425.39 332.69, 425.73 332.71, 426.41 332.63 C 427.09 332.54, 427.68 332.51, 428.00 332.36 C 428.32 332.20, 428.33 332.00, 428.01 331.83 C 427.69 331.67, 427.10 331.60, 426.40 331.54 C 425.70 331.47, 425.34 331.47, 424.51 331.50 C 423.67 331.53, 423.13 331.58, 422.23 331.67 C 421.33 331.77, 420.90 331.85, 420.01 331.99 C 419.13 332.12, 418.59 332.18, 417.80 332.37 C 417.01 332.55, 416.66 332.68, 416.06 332.90 C 415.46 333.13, 415.19 333.25, 414.83 333.48 C 414.47 333.72, 414.34 333.86, 414.26 334.06 C 414.18 334.27, 414.26 334.42, 414.45 334.51" style="stroke: black; fill: black;"/><path d="M 436.76,331.70 C 436.65 331.82, 436.68 331.89, 436.64 332.13 C 436.59 332.36, 436.55 332.47, 436.55 332.87 C 436.54 333.27, 436.55 333.58, 436.61 334.12 C 436.67 334.65, 436.77 334.96, 436.85 335.55 C 436.94 336.15, 436.95 336.51, 437.02 337.11 C 437.10 337.71, 437.15 338.08, 437.22 338.55 C 437.30 339.03, 437.31 339.22, 437.38 339.48 C 437.46 339.73, 437.55 339.82, 437.62 339.81 C 437.69 339.80, 437.75 339.67, 437.72 339.42 C 437.70 339.16, 437.65 338.97, 437.51 338.55 C 437.36 338.13, 437.23 337.85, 437.00 337.32 C 436.78 336.79, 436.62 336.46, 436.38 335.90 C 436.14 335.35, 435.97 335.09, 435.82 334.56 C 435.66 334.04, 435.61 333.78, 435.60 333.27 C 435.59 332.77, 435.61 332.51, 435.75 332.04 C 435.89 331.57, 435.99 331.37, 436.31 330.93 C 436.62 330.49, 436.86 330.26, 437.34 329.86 C 437.83 329.46, 438.11 329.27, 438.74 328.94 C 439.36 328.62, 439.73 328.47, 440.46 328.25 C 441.19 328.03, 441.60 327.94, 442.37 327.84 C 443.14 327.75, 443.53 327.81, 444.30 327.76 C 445.07 327.71, 445.83 327.75, 446.22 327.60 C 446.61 327.45, 446.65 327.21, 446.27 327.00 C 445.89 326.79, 445.13 326.62, 444.33 326.53 C 443.52 326.45, 443.07 326.47, 442.22 326.56 C 441.37 326.65, 440.90 326.74, 440.08 326.98 C 439.26 327.23, 438.84 327.40, 438.13 327.78 C 437.41 328.16, 437.07 328.38, 436.51 328.87 C 435.94 329.36, 435.68 329.67, 435.30 330.23 C 434.92 330.80, 434.81 331.09, 434.63 331.70 C 434.45 332.31, 434.40 332.64, 434.40 333.28 C 434.39 333.91, 434.46 334.25, 434.60 334.87 C 434.73 335.49, 434.88 335.78, 435.07 336.39 C 435.26 337.00, 435.34 337.34, 435.56 337.90 C 435.77 338.47, 435.88 338.79, 436.15 339.22 C 436.42 339.64, 436.60 339.84, 436.92 340.04 C 437.24 340.23, 437.48 340.27, 437.75 340.18 C 438.03 340.09, 438.15 339.93, 438.30 339.59 C 438.45 339.25, 438.49 339.02, 438.52 338.49 C 438.54 337.97, 438.47 337.59, 438.43 336.97 C 438.38 336.35, 438.34 335.99, 438.28 335.39 C 438.23 334.78, 438.19 334.48, 438.14 333.95 C 438.08 333.41, 438.09 333.12, 438.00 332.71 C 437.90 332.29, 437.81 332.12, 437.65 331.89 C 437.50 331.65, 437.39 331.56, 437.21 331.52 C 437.04 331.48, 436.88 331.58, 436.76 331.70" style="stroke: black; fill: black;"/><path d="M 459.35,330.89 C 459.52 330.78, 459.56 330.62, 459.63 330.39 C 459.70 330.15, 459.73 330.00, 459.72 329.71 C 459.71 329.42, 459.66 329.23, 459.57 328.93 C 459.49 328.62, 459.46 328.47, 459.29 328.18 C 459.13 327.89, 459.01 327.71, 458.74 327.48 C 458.47 327.25, 458.30 327.16, 457.93 327.03 C 457.56 326.89, 457.36 326.82, 456.88 326.80 C 456.41 326.78, 456.11 326.80, 455.56 326.93 C 455.00 327.07, 454.71 327.19, 454.12 327.47 C 453.54 327.75, 453.23 327.93, 452.63 328.35 C 452.04 328.77, 451.70 329.03, 451.14 329.57 C 450.58 330.12, 450.30 330.42, 449.83 331.09 C 449.36 331.75, 449.13 332.13, 448.79 332.90 C 448.45 333.67, 448.22 334.10, 448.12 334.93 C 448.02 335.76, 448.02 336.24, 448.29 337.05 C 448.55 337.86, 448.84 338.30, 449.45 338.98 C 450.06 339.66, 450.44 339.96, 451.33 340.46 C 452.22 340.96, 452.80 341.19, 453.91 341.48 C 455.01 341.77, 455.67 341.84, 456.84 341.90 C 458.01 341.97, 458.63 341.93, 459.75 341.81 C 460.87 341.68, 461.44 341.56, 462.44 341.28 C 463.44 340.99, 463.93 340.82, 464.76 340.39 C 465.59 339.96, 465.98 339.71, 466.58 339.14 C 467.17 338.57, 467.42 338.20, 467.74 337.54 C 468.05 336.87, 468.10 336.49, 468.15 335.79 C 468.20 335.10, 468.12 334.74, 467.98 334.07 C 467.84 333.39, 467.68 333.03, 467.43 332.43 C 467.18 331.83, 466.99 331.55, 466.74 331.07 C 466.49 330.59, 466.36 330.35, 466.18 330.02 C 466.01 329.68, 466.00 329.58, 465.86 329.39 C 465.73 329.19, 465.63 329.10, 465.50 329.04 C 465.37 328.97, 465.28 329.03, 465.22 329.07 C 465.15 329.11, 465.21 329.17, 465.19 329.22 C 465.17 329.26, 465.13 329.19, 465.10 329.29 C 465.07 329.38, 465.02 329.45, 465.03 329.67 C 465.04 329.90, 465.04 330.04, 465.15 330.43 C 465.26 330.81, 465.37 331.11, 465.59 331.62 C 465.80 332.12, 466.00 332.39, 466.24 332.94 C 466.48 333.49, 466.63 333.80, 466.78 334.36 C 466.94 334.92, 467.03 335.20, 467.02 335.74 C 467.02 336.28, 466.99 336.56, 466.75 337.07 C 466.50 337.58, 466.31 337.86, 465.81 338.31 C 465.31 338.76, 464.97 338.98, 464.23 339.34 C 463.49 339.69, 463.04 339.85, 462.11 340.09 C 461.19 340.34, 460.66 340.45, 459.62 340.54 C 458.59 340.63, 458.00 340.64, 456.92 340.56 C 455.85 340.49, 455.24 340.41, 454.24 340.16 C 453.24 339.92, 452.72 339.73, 451.94 339.33 C 451.16 338.93, 450.85 338.69, 450.34 338.16 C 449.83 337.63, 449.60 337.29, 449.40 336.68 C 449.19 336.07, 449.20 335.75, 449.32 335.10 C 449.43 334.46, 449.65 334.09, 449.96 333.43 C 450.27 332.78, 450.46 332.42, 450.88 331.84 C 451.30 331.25, 451.55 331.00, 452.06 330.53 C 452.57 330.06, 452.88 329.83, 453.41 329.46 C 453.94 329.09, 454.22 328.93, 454.71 328.69 C 455.21 328.45, 455.46 328.38, 455.89 328.27 C 456.32 328.15, 456.54 328.14, 456.88 328.13 C 457.22 328.11, 457.37 328.14, 457.60 328.18 C 457.83 328.22, 457.91 328.22, 458.03 328.32 C 458.14 328.42, 458.14 328.50, 458.19 328.68 C 458.23 328.86, 458.22 329.00, 458.25 329.23 C 458.29 329.46, 458.33 329.59, 458.37 329.82 C 458.40 330.06, 458.34 330.19, 458.42 330.41 C 458.50 330.63, 458.59 330.84, 458.77 330.93 C 458.96 331.03, 459.18 331.00, 459.35 330.89" style="stroke: black; fill: black;"/><path d="M 473.93,329.06 C 473.72 329.16, 473.58 329.34, 473.37 329.71 C 473.16 330.08, 473.03 330.34, 472.89 330.92 C 472.74 331.49, 472.67 331.89, 472.66 332.58 C 472.65 333.27, 472.75 333.65, 472.85 334.35 C 472.95 335.05, 473.01 335.41, 473.15 336.07 C 473.28 336.73, 473.35 337.04, 473.52 337.67 C 473.69 338.29, 473.78 338.67, 474.01 339.20 C 474.25 339.74, 474.40 340.03, 474.69 340.34 C 474.99 340.65, 475.17 340.73, 475.48 340.75 C 475.79 340.78, 475.98 340.73, 476.23 340.46 C 476.49 340.20, 476.65 339.95, 476.74 339.43 C 476.84 338.92, 476.77 338.53, 476.69 337.89 C 476.61 337.24, 476.48 336.89, 476.35 336.19 C 476.22 335.49, 476.14 335.12, 476.04 334.41 C 475.94 333.69, 475.89 333.28, 475.86 332.60 C 475.82 331.93, 475.81 331.60, 475.86 331.04 C 475.91 330.47, 475.96 330.24, 476.11 329.77 C 476.26 329.30, 476.38 329.06, 476.62 328.70 C 476.86 328.33, 476.95 328.19, 477.31 327.95 C 477.66 327.70, 477.91 327.63, 478.38 327.49 C 478.85 327.35, 479.14 327.25, 479.68 327.24 C 480.21 327.24, 480.49 327.32, 481.07 327.47 C 481.64 327.62, 482.00 327.70, 482.55 327.99 C 483.10 328.29, 483.32 328.48, 483.81 328.92 C 484.31 329.36, 484.60 329.66, 485.01 330.19 C 485.42 330.73, 485.61 331.01, 485.86 331.59 C 486.12 332.18, 486.17 332.49, 486.28 333.10 C 486.39 333.71, 486.34 334.09, 486.40 334.66 C 486.47 335.24, 486.48 335.55, 486.60 335.96 C 486.72 336.37, 486.79 336.51, 487.00 336.71 C 487.21 336.90, 487.33 336.98, 487.63 336.95 C 487.92 336.93, 488.16 336.85, 488.48 336.56 C 488.81 336.27, 488.91 336.00, 489.24 335.52 C 489.58 335.05, 489.72 334.72, 490.16 334.18 C 490.61 333.63, 490.90 333.36, 491.47 332.80 C 492.04 332.24, 492.36 331.92, 493.03 331.36 C 493.70 330.80, 494.09 330.46, 494.81 329.98 C 495.53 329.51, 495.91 329.32, 496.62 329.00 C 497.33 328.67, 497.68 328.51, 498.38 328.36 C 499.08 328.21, 499.45 328.20, 500.10 328.24 C 500.75 328.28, 501.09 328.35, 501.63 328.57 C 502.17 328.80, 502.37 328.94, 502.82 329.37 C 503.27 329.80, 503.46 330.12, 503.88 330.74 C 504.29 331.35, 504.51 331.71, 504.88 332.45 C 505.25 333.20, 505.40 333.62, 505.72 334.46 C 506.05 335.30, 506.21 335.84, 506.50 336.66 C 506.79 337.47, 506.93 337.85, 507.17 338.55 C 507.42 339.25, 507.48 339.61, 507.74 340.15 C 508.01 340.69, 508.20 340.90, 508.50 341.24 C 508.81 341.59, 508.96 341.72, 509.26 341.87 C 509.57 342.01, 509.80 342.02, 510.03 341.96 C 510.25 341.89, 510.39 341.69, 510.41 341.55 C 510.43 341.40, 510.24 341.27, 510.14 341.22 C 510.05 341.17, 510.00 341.31, 509.93 341.30 C 509.85 341.28, 509.87 341.27, 509.75 341.13 C 509.62 340.99, 509.50 340.89, 509.30 340.60 C 509.09 340.32, 508.93 340.19, 508.74 339.70 C 508.54 339.22, 508.52 338.87, 508.32 338.18 C 508.12 337.49, 508.02 337.08, 507.75 336.24 C 507.49 335.40, 507.33 334.85, 506.99 333.97 C 506.65 333.10, 506.47 332.65, 506.06 331.85 C 505.65 331.06, 505.42 330.67, 504.93 330.00 C 504.43 329.33, 504.18 329.00, 503.60 328.50 C 503.03 328.01, 502.75 327.82, 502.07 327.53 C 501.39 327.24, 500.98 327.12, 500.19 327.05 C 499.41 326.99, 498.95 327.03, 498.14 327.20 C 497.33 327.36, 496.94 327.54, 496.13 327.87 C 495.33 328.21, 494.90 328.38, 494.11 328.87 C 493.31 329.36, 492.88 329.73, 492.16 330.32 C 491.44 330.91, 491.15 331.24, 490.53 331.82 C 489.91 332.40, 489.58 332.65, 489.06 333.22 C 488.54 333.78, 488.26 334.12, 487.93 334.64 C 487.59 335.16, 487.51 335.45, 487.39 335.82 C 487.27 336.18, 487.29 336.34, 487.33 336.47 C 487.36 336.61, 487.49 336.61, 487.56 336.48 C 487.64 336.35, 487.69 336.21, 487.71 335.82 C 487.73 335.44, 487.72 335.14, 487.68 334.55 C 487.63 333.96, 487.64 333.56, 487.51 332.87 C 487.37 332.18, 487.29 331.79, 487.00 331.10 C 486.70 330.41, 486.50 330.05, 486.04 329.42 C 485.57 328.79, 485.24 328.47, 484.66 327.96 C 484.09 327.45, 483.80 327.23, 483.14 326.88 C 482.49 326.53, 482.09 326.39, 481.40 326.21 C 480.70 326.02, 480.34 325.94, 479.65 325.96 C 478.97 325.97, 478.60 326.07, 477.99 326.28 C 477.38 326.50, 477.08 326.66, 476.62 327.01 C 476.16 327.37, 475.99 327.59, 475.67 328.07 C 475.36 328.55, 475.23 328.85, 475.03 329.41 C 474.84 329.97, 474.79 330.25, 474.70 330.90 C 474.60 331.54, 474.56 331.90, 474.56 332.63 C 474.56 333.37, 474.61 333.81, 474.69 334.57 C 474.77 335.32, 474.86 335.71, 474.95 336.41 C 475.04 337.11, 475.07 337.48, 475.14 338.07 C 475.21 338.67, 475.24 338.98, 475.30 339.39 C 475.37 339.81, 475.41 339.97, 475.47 340.14 C 475.54 340.32, 475.62 340.35, 475.64 340.28 C 475.67 340.21, 475.69 340.10, 475.60 339.79 C 475.52 339.47, 475.39 339.22, 475.21 338.72 C 475.04 338.23, 474.90 337.90, 474.73 337.33 C 474.57 336.75, 474.50 336.46, 474.39 335.84 C 474.29 335.21, 474.26 334.84, 474.20 334.19 C 474.14 333.55, 474.09 333.21, 474.11 332.61 C 474.13 332.01, 474.23 331.71, 474.30 331.19 C 474.37 330.68, 474.44 330.43, 474.47 330.04 C 474.49 329.65, 474.53 329.44, 474.42 329.24 C 474.32 329.05, 474.15 328.97, 473.93 329.06" style="stroke: black; fill: black;"/><path d="M 537.06,319.00 C 536.90 319.17, 536.79 319.36, 536.72 319.86 C 536.66 320.36, 536.68 320.74, 536.72 321.49 C 536.75 322.24, 536.82 322.72, 536.90 323.62 C 536.99 324.53, 537.03 325.00, 537.15 326.01 C 537.26 327.02, 537.37 327.56, 537.48 328.65 C 537.60 329.75, 537.61 330.35, 537.72 331.50 C 537.83 332.64, 537.88 333.23, 538.02 334.36 C 538.15 335.48, 538.27 336.06, 538.40 337.11 C 538.53 338.17, 538.56 338.68, 538.67 339.63 C 538.78 340.58, 538.78 341.14, 538.94 341.87 C 539.10 342.60, 539.25 342.97, 539.46 343.29 C 539.67 343.60, 539.82 343.58, 540.00 343.45 C 540.17 343.32, 540.26 343.10, 540.34 342.62 C 540.41 342.14, 540.42 341.73, 540.37 341.03 C 540.32 340.33, 540.16 339.90, 540.10 339.12 C 540.04 338.35, 540.02 337.92, 540.07 337.16 C 540.12 336.39, 540.16 336.02, 540.36 335.28 C 540.57 334.55, 540.71 334.20, 541.08 333.47 C 541.45 332.75, 541.69 332.34, 542.20 331.64 C 542.71 330.95, 543.02 330.58, 543.64 329.98 C 544.27 329.37, 544.64 329.08, 545.34 328.63 C 546.04 328.18, 546.44 327.98, 547.16 327.72 C 547.88 327.45, 548.24 327.36, 548.93 327.30 C 549.62 327.24, 550.00 327.28, 550.61 327.42 C 551.23 327.56, 551.49 327.64, 551.98 327.98 C 552.48 328.32, 552.68 328.57, 553.07 329.12 C 553.46 329.67, 553.65 330.00, 553.95 330.71 C 554.26 331.43, 554.36 331.84, 554.60 332.68 C 554.84 333.51, 554.93 334.01, 555.15 334.91 C 555.37 335.80, 555.50 336.28, 555.70 337.15 C 555.91 338.03, 555.99 338.47, 556.18 339.27 C 556.37 340.08, 556.41 340.48, 556.64 341.17 C 556.86 341.85, 557.00 342.21, 557.30 342.70 C 557.61 343.18, 557.92 343.47, 558.17 343.60 C 558.43 343.73, 558.57 343.62, 558.57 343.35 C 558.58 343.09, 558.37 342.78, 558.21 342.27 C 558.05 341.77, 557.94 341.49, 557.78 340.84 C 557.61 340.19, 557.55 339.80, 557.38 339.01 C 557.22 338.22, 557.15 337.76, 556.96 336.87 C 556.77 335.99, 556.66 335.51, 556.44 334.59 C 556.22 333.68, 556.13 333.19, 555.87 332.31 C 555.61 331.42, 555.50 330.97, 555.13 330.18 C 554.76 329.40, 554.54 329.01, 554.04 328.38 C 553.54 327.75, 553.26 327.45, 552.62 327.03 C 551.99 326.62, 551.64 326.48, 550.88 326.29 C 550.12 326.11, 549.66 326.06, 548.84 326.11 C 548.01 326.17, 547.59 326.29, 546.75 326.58 C 545.92 326.87, 545.47 327.08, 544.67 327.57 C 543.87 328.06, 543.46 328.38, 542.76 329.04 C 542.05 329.70, 541.71 330.10, 541.15 330.88 C 540.59 331.66, 540.35 332.11, 539.96 332.92 C 539.57 333.74, 539.43 334.13, 539.19 334.95 C 538.96 335.77, 538.90 336.18, 538.78 337.02 C 538.66 337.86, 538.62 338.32, 538.61 339.16 C 538.59 340.00, 538.60 340.49, 538.70 341.21 C 538.81 341.94, 538.93 342.33, 539.13 342.79 C 539.34 343.25, 539.53 343.42, 539.74 343.49 C 539.95 343.56, 540.10 343.51, 540.19 343.15 C 540.27 342.79, 540.22 342.42, 540.17 341.69 C 540.11 340.96, 540.02 340.44, 539.91 339.49 C 539.81 338.55, 539.76 338.02, 539.64 336.96 C 539.51 335.91, 539.41 335.33, 539.29 334.21 C 539.17 333.10, 539.13 332.52, 539.03 331.38 C 538.94 330.24, 538.92 329.62, 538.81 328.52 C 538.70 327.42, 538.57 326.88, 538.49 325.87 C 538.40 324.87, 538.42 324.41, 538.37 323.51 C 538.31 322.60, 538.32 322.09, 538.22 321.35 C 538.11 320.60, 537.98 320.25, 537.84 319.78 C 537.70 319.32, 537.69 319.17, 537.54 319.01 C 537.38 318.85, 537.23 318.83, 537.06 319.00" style="stroke: black; fill: black;"/><path d="M 576.04,331.96 C 576.11 331.70, 576.11 331.35, 575.93 330.89 C 575.74 330.43, 575.55 330.15, 575.12 329.66 C 574.69 329.17, 574.41 328.81, 573.78 328.45 C 573.14 328.09, 572.74 328.02, 571.96 327.86 C 571.19 327.71, 570.77 327.69, 569.90 327.69 C 569.04 327.69, 568.54 327.70, 567.63 327.87 C 566.73 328.03, 566.25 328.16, 565.39 328.52 C 564.54 328.89, 564.11 329.17, 563.35 329.68 C 562.59 330.18, 562.21 330.43, 561.61 331.06 C 561.01 331.69, 560.71 332.05, 560.34 332.82 C 559.96 333.59, 559.82 334.06, 559.73 334.90 C 559.65 335.74, 559.70 336.19, 559.92 337.02 C 560.13 337.85, 560.33 338.30, 560.80 339.06 C 561.27 339.83, 561.58 340.22, 562.26 340.84 C 562.93 341.46, 563.35 341.71, 564.18 342.15 C 565.00 342.59, 565.48 342.78, 566.40 343.04 C 567.32 343.30, 567.81 343.39, 568.76 343.44 C 569.71 343.50, 570.20 343.46, 571.15 343.31 C 572.10 343.16, 572.60 343.04, 573.49 342.71 C 574.37 342.38, 574.81 342.15, 575.57 341.65 C 576.32 341.14, 576.71 340.82, 577.28 340.20 C 577.86 339.58, 578.12 339.24, 578.45 338.53 C 578.77 337.82, 578.83 337.40, 578.90 336.65 C 578.97 335.90, 578.95 335.52, 578.81 334.80 C 578.67 334.09, 578.50 333.72, 578.19 333.08 C 577.89 332.44, 577.69 332.11, 577.30 331.61 C 576.90 331.11, 576.62 330.91, 576.21 330.59 C 575.79 330.28, 575.56 330.17, 575.21 330.05 C 574.87 329.92, 574.66 329.91, 574.48 329.97 C 574.30 330.02, 574.26 330.15, 574.31 330.32 C 574.36 330.49, 574.50 330.57, 574.73 330.81 C 574.95 331.05, 575.12 331.19, 575.43 331.50 C 575.75 331.81, 576.00 331.95, 576.32 332.37 C 576.64 332.80, 576.79 333.09, 577.05 333.62 C 577.31 334.16, 577.48 334.47, 577.62 335.06 C 577.76 335.64, 577.78 335.95, 577.74 336.55 C 577.70 337.15, 577.67 337.49, 577.41 338.05 C 577.14 338.62, 576.92 338.86, 576.42 339.37 C 575.91 339.88, 575.56 340.17, 574.88 340.60 C 574.21 341.04, 573.83 341.25, 573.05 341.54 C 572.26 341.83, 571.80 341.94, 570.96 342.07 C 570.11 342.20, 569.67 342.25, 568.83 342.20 C 567.99 342.15, 567.56 342.05, 566.75 341.82 C 565.93 341.59, 565.49 341.41, 564.77 341.03 C 564.04 340.65, 563.68 340.44, 563.10 339.91 C 562.53 339.39, 562.28 339.04, 561.88 338.40 C 561.47 337.76, 561.29 337.38, 561.09 336.70 C 560.90 336.03, 560.85 335.68, 560.91 335.01 C 560.97 334.34, 561.09 333.97, 561.40 333.35 C 561.72 332.72, 561.94 332.43, 562.47 331.90 C 563.00 331.38, 563.36 331.17, 564.04 330.73 C 564.73 330.29, 565.12 330.03, 565.89 329.71 C 566.65 329.40, 567.06 329.31, 567.87 329.17 C 568.67 329.03, 569.14 329.03, 569.91 329.02 C 570.68 329.01, 571.09 329.01, 571.73 329.12 C 572.36 329.24, 572.62 329.29, 573.09 329.59 C 573.56 329.89, 573.71 330.23, 574.07 330.61 C 574.44 331.00, 574.64 331.19, 574.93 331.50 C 575.22 331.81, 575.31 332.07, 575.53 332.16 C 575.75 332.25, 575.96 332.21, 576.04 331.96" style="stroke: black; fill: black;"/><path d="M 584.70,329.41 C 584.57 329.48, 584.54 329.50, 584.45 329.71 C 584.35 329.92, 584.28 330.05, 584.22 330.46 C 584.16 330.86, 584.17 331.15, 584.14 331.73 C 584.11 332.31, 584.08 332.65, 584.07 333.34 C 584.05 334.03, 584.05 334.41, 584.05 335.18 C 584.05 335.95, 584.06 336.42, 584.08 337.19 C 584.10 337.96, 584.16 338.33, 584.16 339.03 C 584.16 339.73, 584.07 340.12, 584.10 340.71 C 584.12 341.30, 584.15 341.63, 584.30 341.97 C 584.45 342.31, 584.62 342.40, 584.84 342.42 C 585.07 342.44, 585.22 342.36, 585.43 342.06 C 585.65 341.75, 585.79 341.48, 585.90 340.90 C 586.02 340.33, 585.98 339.93, 586.01 339.19 C 586.04 338.45, 585.98 337.99, 586.05 337.21 C 586.11 336.43, 586.18 336.01, 586.33 335.28 C 586.49 334.56, 586.58 334.23, 586.83 333.57 C 587.08 332.91, 587.23 332.57, 587.59 331.99 C 587.96 331.41, 588.18 331.14, 588.67 330.67 C 589.16 330.20, 589.45 329.97, 590.03 329.65 C 590.61 329.32, 590.95 329.17, 591.58 329.05 C 592.21 328.93, 592.54 328.95, 593.17 329.06 C 593.80 329.18, 594.12 329.26, 594.71 329.62 C 595.31 329.98, 595.63 330.33, 596.14 330.86 C 596.65 331.40, 596.91 331.68, 597.28 332.31 C 597.64 332.94, 597.76 333.27, 597.96 333.99 C 598.15 334.71, 598.19 335.18, 598.27 335.92 C 598.34 336.67, 598.36 337.04, 598.34 337.73 C 598.33 338.42, 598.23 338.80, 598.21 339.39 C 598.18 339.99, 598.12 340.35, 598.23 340.70 C 598.34 341.05, 598.50 341.17, 598.76 341.13 C 599.01 341.09, 599.21 340.94, 599.50 340.50 C 599.79 340.05, 599.93 339.66, 600.21 338.92 C 600.49 338.17, 600.62 337.63, 600.92 336.77 C 601.22 335.91, 601.38 335.45, 601.71 334.63 C 602.03 333.81, 602.17 333.39, 602.54 332.67 C 602.91 331.96, 603.12 331.61, 603.54 331.04 C 603.97 330.47, 604.20 330.24, 604.68 329.84 C 605.16 329.44, 605.44 329.29, 605.95 329.06 C 606.46 328.82, 606.73 328.73, 607.22 328.68 C 607.71 328.63, 607.91 328.63, 608.40 328.81 C 608.88 328.99, 609.14 329.17, 609.65 329.57 C 610.16 329.98, 610.45 330.25, 610.95 330.83 C 611.46 331.41, 611.69 331.75, 612.17 332.49 C 612.64 333.22, 612.88 333.68, 613.32 334.51 C 613.76 335.34, 613.97 335.78, 614.37 336.63 C 614.77 337.48, 614.96 337.94, 615.33 338.76 C 615.70 339.57, 615.89 340.02, 616.24 340.72 C 616.59 341.42, 616.79 341.79, 617.10 342.26 C 617.40 342.72, 617.54 342.83, 617.76 343.04 C 617.98 343.26, 618.06 343.30, 618.19 343.32 C 618.32 343.35, 618.38 343.30, 618.41 343.18 C 618.44 343.05, 618.40 343.00, 618.34 342.71 C 618.28 342.43, 618.28 342.26, 618.09 341.75 C 617.89 341.25, 617.70 340.88, 617.38 340.17 C 617.06 339.47, 616.85 339.05, 616.49 338.23 C 616.12 337.42, 615.94 336.96, 615.54 336.09 C 615.15 335.22, 614.95 334.76, 614.50 333.89 C 614.05 333.03, 613.80 332.55, 613.29 331.76 C 612.78 330.97, 612.53 330.59, 611.95 329.95 C 611.38 329.30, 611.05 328.99, 610.41 328.54 C 609.77 328.09, 609.41 327.91, 608.75 327.72 C 608.09 327.52, 607.77 327.51, 607.11 327.57 C 606.46 327.62, 606.11 327.72, 605.48 327.99 C 604.84 328.27, 604.52 328.48, 603.95 328.94 C 603.37 329.40, 603.10 329.68, 602.60 330.31 C 602.10 330.94, 601.88 331.33, 601.45 332.09 C 601.03 332.85, 600.88 333.28, 600.49 334.10 C 600.10 334.93, 599.86 335.35, 599.49 336.20 C 599.11 337.06, 598.84 337.59, 598.61 338.38 C 598.38 339.16, 598.35 339.60, 598.34 340.12 C 598.32 340.64, 598.38 340.84, 598.52 340.98 C 598.66 341.12, 598.86 341.10, 599.05 340.81 C 599.25 340.52, 599.39 340.15, 599.50 339.53 C 599.61 338.92, 599.59 338.49, 599.60 337.75 C 599.61 337.00, 599.62 336.61, 599.53 335.79 C 599.44 334.97, 599.40 334.47, 599.16 333.65 C 598.92 332.83, 598.76 332.44, 598.35 331.70 C 597.93 330.96, 597.68 330.60, 597.08 329.97 C 596.48 329.34, 596.09 328.95, 595.35 328.54 C 594.60 328.12, 594.17 328.03, 593.38 327.89 C 592.58 327.75, 592.16 327.72, 591.37 327.85 C 590.58 327.99, 590.14 328.17, 589.43 328.56 C 588.72 328.94, 588.38 329.23, 587.81 329.78 C 587.24 330.34, 586.99 330.68, 586.57 331.34 C 586.15 332.01, 586.01 332.40, 585.71 333.13 C 585.42 333.85, 585.31 334.19, 585.09 334.98 C 584.87 335.76, 584.75 336.21, 584.62 337.04 C 584.49 337.86, 584.47 338.36, 584.42 339.10 C 584.37 339.85, 584.35 340.20, 584.36 340.76 C 584.36 341.32, 584.36 341.57, 584.46 341.88 C 584.56 342.19, 584.71 342.30, 584.87 342.30 C 585.02 342.30, 585.12 342.21, 585.22 341.90 C 585.32 341.58, 585.31 341.30, 585.35 340.73 C 585.40 340.15, 585.43 339.75, 585.45 339.04 C 585.46 338.33, 585.43 337.94, 585.42 337.17 C 585.42 336.40, 585.42 335.93, 585.43 335.18 C 585.44 334.43, 585.42 334.09, 585.47 333.42 C 585.53 332.75, 585.65 332.43, 585.70 331.84 C 585.75 331.25, 585.79 330.92, 585.74 330.48 C 585.69 330.04, 585.58 329.87, 585.45 329.64 C 585.32 329.41, 585.25 329.39, 585.10 329.35 C 584.95 329.30, 584.84 329.33, 584.70 329.41" style="stroke: black; fill: black;"/><path d="M 622.99,338.49 C 623.22 338.48, 623.40 338.33, 623.76 338.09 C 624.12 337.85, 624.36 337.68, 624.79 337.31 C 625.21 336.94, 625.45 336.66, 625.90 336.24 C 626.35 335.83, 626.59 335.66, 627.04 335.23 C 627.48 334.80, 627.71 334.55, 628.12 334.10 C 628.54 333.64, 628.76 333.43, 629.10 332.97 C 629.45 332.52, 629.62 332.29, 629.83 331.81 C 630.05 331.34, 630.11 331.09, 630.17 330.62 C 630.22 330.15, 630.22 329.89, 630.10 329.46 C 629.98 329.03, 629.87 328.80, 629.57 328.47 C 629.27 328.13, 629.05 327.97, 628.59 327.77 C 628.13 327.57, 627.84 327.50, 627.27 327.45 C 626.69 327.40, 626.39 327.39, 625.71 327.52 C 625.04 327.65, 624.60 327.79, 623.88 328.10 C 623.16 328.42, 622.77 328.64, 622.11 329.10 C 621.46 329.56, 621.15 329.80, 620.61 330.39 C 620.07 330.99, 619.75 331.36, 619.41 332.07 C 619.07 332.79, 618.99 333.18, 618.93 333.97 C 618.86 334.75, 618.89 335.19, 619.09 335.99 C 619.29 336.80, 619.41 337.23, 619.92 338.00 C 620.43 338.77, 620.78 339.14, 621.63 339.83 C 622.47 340.51, 622.98 340.85, 624.14 341.42 C 625.31 341.99, 626.02 342.28, 627.43 342.69 C 628.85 343.11, 629.80 343.30, 631.23 343.49 C 632.67 343.68, 633.44 343.65, 634.61 343.64 C 635.79 343.63, 636.60 343.57, 637.10 343.43 C 637.61 343.30, 637.61 343.13, 637.12 342.95 C 636.64 342.77, 635.82 342.70, 634.69 342.54 C 633.55 342.37, 632.82 342.35, 631.45 342.11 C 630.08 341.87, 629.17 341.70, 627.83 341.32 C 626.49 340.94, 625.81 340.70, 624.73 340.20 C 623.65 339.70, 623.18 339.39, 622.42 338.82 C 621.66 338.24, 621.37 337.94, 620.93 337.31 C 620.50 336.69, 620.42 336.35, 620.26 335.70 C 620.09 335.05, 620.06 334.68, 620.11 334.06 C 620.16 333.44, 620.20 333.16, 620.49 332.60 C 620.77 332.04, 621.06 331.74, 621.53 331.26 C 622.00 330.78, 622.26 330.57, 622.85 330.20 C 623.43 329.83, 623.82 329.68, 624.45 329.41 C 625.08 329.14, 625.46 328.98, 626.00 328.84 C 626.55 328.71, 626.76 328.71, 627.18 328.72 C 627.61 328.74, 627.82 328.82, 628.14 328.92 C 628.46 329.02, 628.61 329.07, 628.79 329.23 C 628.98 329.39, 629.01 329.47, 629.06 329.72 C 629.11 329.97, 629.11 330.15, 629.06 330.47 C 629.01 330.79, 628.99 330.97, 628.81 331.32 C 628.62 331.66, 628.46 331.83, 628.14 332.21 C 627.82 332.59, 627.59 332.82, 627.20 333.23 C 626.80 333.65, 626.61 333.90, 626.17 334.28 C 625.72 334.67, 625.45 334.78, 624.97 335.17 C 624.49 335.56, 624.18 335.81, 623.77 336.23 C 623.36 336.65, 623.14 336.89, 622.91 337.27 C 622.67 337.66, 622.57 337.90, 622.59 338.15 C 622.60 338.39, 622.75 338.50, 622.99 338.49" style="stroke: black; fill: black;"/><path d="M 662.09,311.62 C 661.95 311.76, 661.95 311.94, 661.92 312.21 C 661.89 312.49, 661.92 312.63, 661.94 312.99 C 661.97 313.36, 661.98 313.58, 662.06 314.04 C 662.14 314.49, 662.20 314.77, 662.35 315.26 C 662.49 315.75, 662.59 316.00, 662.78 316.49 C 662.96 316.99, 663.05 317.27, 663.29 317.75 C 663.52 318.23, 663.68 318.49, 663.97 318.89 C 664.25 319.29, 664.43 319.48, 664.70 319.74 C 664.98 320.01, 665.10 320.10, 665.34 320.21 C 665.59 320.33, 665.78 320.37, 665.94 320.32 C 666.11 320.27, 666.16 320.11, 666.15 319.96 C 666.14 319.81, 666.00 319.76, 665.88 319.57 C 665.77 319.38, 665.76 319.30, 665.59 319.02 C 665.42 318.74, 665.28 318.54, 665.05 318.17 C 664.82 317.80, 664.67 317.59, 664.46 317.17 C 664.25 316.74, 664.16 316.49, 664.00 316.04 C 663.84 315.59, 663.77 315.37, 663.67 314.92 C 663.56 314.47, 663.56 314.22, 663.49 313.79 C 663.42 313.36, 663.40 313.14, 663.31 312.77 C 663.22 312.41, 663.18 312.24, 663.04 311.99 C 662.91 311.73, 662.81 311.57, 662.62 311.49 C 662.43 311.42, 662.23 311.48, 662.09 311.62" style="stroke: black; fill: black;"/><path d="M 668.78,310.67 C 668.68 310.85, 668.76 311.00, 668.77 311.37 C 668.79 311.74, 668.76 311.99, 668.86 312.52 C 668.96 313.05, 669.11 313.40, 669.27 314.03 C 669.43 314.66, 669.49 315.00, 669.65 315.66 C 669.81 316.33, 669.90 316.72, 670.05 317.38 C 670.20 318.03, 670.25 318.41, 670.41 318.96 C 670.56 319.50, 670.66 319.73, 670.82 320.09 C 670.98 320.46, 671.06 320.65, 671.21 320.78 C 671.37 320.90, 671.50 320.88, 671.60 320.71 C 671.70 320.53, 671.71 320.32, 671.72 319.92 C 671.72 319.52, 671.71 319.27, 671.64 318.71 C 671.57 318.15, 671.50 317.76, 671.37 317.10 C 671.24 316.43, 671.12 316.06, 670.99 315.38 C 670.86 314.70, 670.85 314.34, 670.71 313.70 C 670.56 313.05, 670.46 312.69, 670.28 312.16 C 670.11 311.63, 670.05 311.37, 669.84 311.03 C 669.63 310.69, 669.45 310.52, 669.24 310.45 C 669.02 310.38, 668.87 310.49, 668.78 310.67" style="stroke: black; fill: black;"/></svg>