<svg xmlns="http://www.w3.org/2000/svg" id="canvas" viewBox="191.275 210.950 451.783 193.328"><path d="M 231.19,254.86 C 230.55 255.24, 229.94 255.62, 228.91 257.33 C 227.89 259.05, 227.30 260.15, 226.08 263.42 C 224.86 266.69, 224.33 268.75, 222.81 273.68 C 221.28 278.60, 220.31 281.61, 218.44 288.04 C 216.57 294.46, 215.57 298.40, 213.46 305.80 C 211.36 313.20, 210.02 317.27, 207.93 325.03 C 205.85 332.78, 204.78 337.19, 203.03 344.58 C 201.28 351.97, 200.46 355.67, 199.18 361.99 C 197.90 368.31, 197.46 371.10, 196.64 376.18 C 195.83 381.26, 195.58 383.58, 195.11 387.38 C 194.64 391.19, 194.34 392.85, 194.29 395.20 C 194.25 397.54, 194.51 398.50, 194.90 399.11 C 195.29 399.71, 195.76 399.54, 196.26 398.21 C 196.75 396.89, 197.04 395.74, 197.36 392.48 C 197.69 389.21, 197.52 386.86, 197.88 381.88 C 198.25 376.91, 198.45 373.87, 199.21 367.60 C 199.96 361.34, 200.46 357.74, 201.68 350.54 C 202.90 343.33, 203.67 339.42, 205.30 331.57 C 206.92 323.72, 207.79 319.46, 209.81 311.30 C 211.83 303.15, 213.03 298.75, 215.41 290.79 C 217.79 282.83, 219.08 278.78, 221.73 271.51 C 224.38 264.23, 225.86 260.69, 228.66 254.42 C 231.46 248.15, 233.04 245.17, 235.72 240.16 C 238.40 235.14, 239.86 232.91, 242.06 229.35 C 244.26 225.79, 245.30 224.38, 246.72 222.36 C 248.15 220.35, 248.48 219.74, 249.19 219.26 C 249.91 218.78, 250.00 218.82, 250.30 219.95 C 250.59 221.09, 250.42 221.88, 250.67 224.95 C 250.91 228.02, 251.25 230.16, 251.52 235.29 C 251.78 240.41, 251.95 243.74, 252.00 250.57 C 252.04 257.40, 251.87 261.42, 251.73 269.44 C 251.59 277.45, 251.43 282.03, 251.29 290.64 C 251.16 299.25, 251.13 303.85, 251.05 312.48 C 250.96 321.12, 250.90 325.66, 250.88 333.82 C 250.86 341.98, 250.80 346.08, 250.96 353.29 C 251.11 360.49, 251.34 363.96, 251.64 369.84 C 251.94 375.71, 252.14 378.30, 252.44 382.65 C 252.74 387.00, 252.87 388.73, 253.15 391.60 C 253.43 394.47, 253.58 395.35, 253.82 397.00 C 254.06 398.66, 254.16 399.15, 254.35 399.87 C 254.54 400.59, 254.64 400.56, 254.79 400.59 C 254.93 400.62, 255.07 400.29, 255.07 400.03 C 255.07 399.78, 255.14 399.30, 254.78 399.31 C 254.41 399.33, 253.42 399.73, 253.24 400.10 C 253.06 400.47, 253.46 400.97, 253.87 401.16 C 254.28 401.35, 254.91 401.31, 255.31 401.04 C 255.72 400.76, 255.80 400.63, 255.90 399.78 C 256.00 398.93, 255.93 398.48, 255.83 396.80 C 255.73 395.11, 255.74 394.21, 255.39 391.35 C 255.04 388.49, 254.58 386.82, 254.09 382.50 C 253.61 378.18, 253.37 375.60, 252.97 369.76 C 252.57 363.91, 252.31 360.45, 252.10 353.26 C 251.89 346.07, 251.93 341.97, 251.93 333.82 C 251.92 325.67, 251.98 321.13, 252.07 312.49 C 252.16 303.86, 252.19 299.26, 252.36 290.66 C 252.53 282.05, 252.70 277.48, 252.93 269.46 C 253.15 261.45, 253.35 257.42, 253.47 250.58 C 253.59 243.73, 253.53 240.41, 253.53 235.23 C 253.52 230.06, 253.79 227.89, 253.44 224.69 C 253.10 221.48, 252.74 220.52, 251.79 219.20 C 250.85 217.88, 250.07 217.71, 248.71 218.08 C 247.34 218.45, 246.59 218.97, 244.96 221.05 C 243.33 223.12, 242.64 224.76, 240.55 228.46 C 238.45 232.15, 237.08 234.42, 234.49 239.51 C 231.90 244.61, 230.33 247.61, 227.57 253.94 C 224.82 260.26, 223.34 263.83, 220.71 271.14 C 218.08 278.45, 216.79 282.51, 214.40 290.49 C 212.02 298.47, 210.82 302.88, 208.78 311.05 C 206.74 319.22, 205.86 323.48, 204.19 331.34 C 202.52 339.19, 201.73 343.11, 200.43 350.32 C 199.12 357.53, 198.59 361.13, 197.66 367.40 C 196.72 373.67, 196.40 376.70, 195.75 381.67 C 195.10 386.63, 194.67 388.94, 194.42 392.22 C 194.17 395.50, 194.27 396.67, 194.51 398.05 C 194.75 399.43, 195.21 399.66, 195.62 399.12 C 196.04 398.58, 196.30 397.66, 196.58 395.35 C 196.85 393.05, 196.70 391.37, 197.01 387.58 C 197.31 383.78, 197.42 381.46, 198.10 376.39 C 198.78 371.32, 199.20 368.54, 200.41 362.23 C 201.63 355.92, 202.43 352.23, 204.16 344.85 C 205.88 337.46, 206.94 333.07, 209.05 325.33 C 211.15 317.59, 212.50 313.52, 214.66 306.15 C 216.83 298.77, 217.87 294.84, 219.87 288.47 C 221.87 282.10, 222.91 279.11, 224.65 274.30 C 226.40 269.49, 227.32 267.59, 228.61 264.41 C 229.91 261.24, 230.43 260.23, 231.14 258.43 C 231.84 256.64, 232.13 256.15, 232.14 255.43 C 232.15 254.72, 231.84 254.48, 231.19 254.86" style="stroke: black; fill: black;"/><path d="M 207.39,316.40 C 207.84 316.43, 207.85 316.27, 208.94 315.84 C 210.02 315.42, 210.69 315.33, 212.82 314.27 C 214.95 313.22, 216.27 312.30, 219.60 310.56 C 222.93 308.82, 225.24 307.69, 229.49 305.58 C 233.74 303.47, 236.41 302.14, 240.85 300.00 C 245.29 297.86, 247.69 296.72, 251.69 294.89 C 255.69 293.06, 257.71 292.28, 260.86 290.83 C 264.02 289.39, 265.44 288.60, 267.45 287.66 C 269.46 286.72, 270.12 286.16, 270.90 286.14 C 271.68 286.11, 271.50 286.31, 271.35 287.55 C 271.20 288.79, 270.65 289.64, 270.15 292.36 C 269.66 295.07, 269.53 297.00, 268.88 301.13 C 268.24 305.25, 267.68 307.81, 266.94 312.98 C 266.19 318.16, 265.77 321.35, 265.16 327.01 C 264.54 332.68, 264.14 335.81, 263.85 341.31 C 263.56 346.80, 263.55 349.63, 263.72 354.49 C 263.90 359.35, 264.20 361.71, 264.74 365.58 C 265.28 369.46, 265.58 371.16, 266.43 373.86 C 267.28 376.57, 267.85 377.72, 269.01 379.12 C 270.17 380.51, 271.07 380.78, 272.24 380.84 C 273.40 380.91, 274.13 380.20, 274.82 379.46 C 275.50 378.73, 275.74 377.74, 275.66 377.16 C 275.59 376.57, 274.92 376.34, 274.45 376.54 C 273.97 376.74, 273.72 377.60, 273.30 378.16 C 272.87 378.72, 272.86 379.39, 272.34 379.34 C 271.81 379.30, 271.37 379.20, 270.67 377.95 C 269.97 376.70, 269.63 375.64, 268.84 373.11 C 268.05 370.57, 267.41 369.00, 266.73 365.27 C 266.05 361.53, 265.70 359.19, 265.45 354.41 C 265.20 349.64, 265.20 346.83, 265.48 341.39 C 265.75 335.95, 266.16 332.83, 266.83 327.20 C 267.50 321.58, 267.95 318.41, 268.85 313.29 C 269.74 308.16, 270.41 305.67, 271.31 301.58 C 272.21 297.50, 272.95 295.71, 273.34 292.86 C 273.73 290.02, 273.71 288.97, 273.27 287.35 C 272.82 285.74, 272.48 285.15, 271.13 284.77 C 269.78 284.38, 268.79 284.64, 266.54 285.44 C 264.29 286.24, 263.03 287.24, 259.89 288.77 C 256.75 290.31, 254.83 291.20, 250.85 293.09 C 246.87 294.98, 244.47 296.12, 240.01 298.22 C 235.55 300.32, 232.87 301.63, 228.55 303.59 C 224.22 305.55, 221.85 306.50, 218.38 308.03 C 214.92 309.56, 213.38 310.07, 211.24 311.25 C 209.10 312.42, 208.57 313.02, 207.67 313.91 C 206.76 314.79, 206.77 315.17, 206.71 315.66 C 206.66 316.16, 206.94 316.36, 207.39 316.40" style="stroke: black; fill: black;"/><path d="M 275.95,266.00 C 275.64 265.50, 275.07 265.11, 274.37 264.97 C 273.67 264.84, 273.01 264.94, 272.45 265.34 C 271.89 265.74, 271.63 266.48, 271.58 266.97 C 271.52 267.47, 271.95 267.74, 272.17 267.80 C 272.39 267.87, 272.59 267.35, 272.68 267.28 C 272.76 267.21, 272.51 267.26, 272.59 267.45 C 272.68 267.65, 272.74 268.05, 273.11 268.24 C 273.47 268.43, 273.86 268.57, 274.42 268.41 C 274.98 268.26, 275.60 267.96, 275.91 267.48 C 276.21 267.00, 276.26 266.50, 275.95 266.00" style="stroke: black; fill: black;"/><path d="M 301.26,285.63 C 300.88 286.17, 300.73 286.57, 300.43 288.36 C 300.14 290.15, 299.99 291.38, 299.79 294.59 C 299.58 297.80, 299.65 299.89, 299.41 304.41 C 299.17 308.93, 299.02 311.78, 298.60 317.18 C 298.18 322.57, 297.81 325.75, 297.33 331.39 C 296.85 337.02, 296.63 340.17, 296.19 345.35 C 295.75 350.53, 295.46 353.09, 295.15 357.28 C 294.83 361.48, 294.55 363.64, 294.63 366.33 C 294.71 369.02, 295.05 369.94, 295.57 370.73 C 296.09 371.53, 296.57 371.39, 297.24 370.30 C 297.90 369.22, 298.46 368.25, 298.92 365.32 C 299.37 362.39, 299.15 360.15, 299.50 355.66 C 299.86 351.17, 299.87 348.20, 300.69 342.88 C 301.51 337.55, 302.10 334.42, 303.61 329.02 C 305.12 323.62, 306.21 320.77, 308.26 315.88 C 310.31 310.99, 311.49 308.49, 313.87 304.58 C 316.26 300.67, 317.60 298.98, 320.16 296.33 C 322.72 293.67, 324.19 292.81, 326.68 291.30 C 329.17 289.78, 330.46 289.31, 332.60 288.76 C 334.74 288.21, 335.75 288.50, 337.38 288.55 C 339.02 288.60, 339.75 288.93, 340.78 289.00 C 341.81 289.07, 342.06 288.92, 342.54 288.89 C 343.03 288.87, 343.01 288.98, 343.20 288.89 C 343.39 288.80, 343.55 288.70, 343.50 288.45 C 343.45 288.20, 343.42 287.96, 342.95 287.63 C 342.49 287.30, 342.27 287.12, 341.18 286.80 C 340.09 286.48, 339.34 286.13, 337.49 286.03 C 335.65 285.92, 334.37 285.64, 331.96 286.29 C 329.54 286.94, 328.05 287.53, 325.40 289.27 C 322.75 291.00, 321.31 292.08, 318.70 294.97 C 316.10 297.85, 314.76 299.62, 312.37 303.68 C 309.98 307.74, 308.83 310.27, 306.76 315.25 C 304.68 320.23, 303.60 323.10, 302.02 328.57 C 300.44 334.03, 299.83 337.20, 298.84 342.56 C 297.84 347.93, 297.67 350.92, 297.05 355.39 C 296.42 359.86, 295.97 362.02, 295.72 364.93 C 295.47 367.85, 295.64 368.84, 295.79 369.97 C 295.94 371.10, 296.22 371.30, 296.49 370.58 C 296.76 369.86, 297.01 368.99, 297.13 366.35 C 297.26 363.71, 296.96 361.56, 297.11 357.39 C 297.26 353.22, 297.50 350.66, 297.88 345.48 C 298.26 340.31, 298.49 337.16, 299.00 331.53 C 299.51 325.91, 299.89 322.73, 300.43 317.34 C 300.97 311.95, 301.21 309.10, 301.69 304.59 C 302.17 300.09, 302.58 298.03, 302.83 294.81 C 303.08 291.59, 303.05 290.32, 302.94 288.49 C 302.84 286.66, 302.65 286.24, 302.31 285.67 C 301.97 285.09, 301.63 285.09, 301.26 285.63" style="stroke: black; fill: black;"/><path d="M 453.97,240.75 C 453.77 241.44, 453.85 241.91, 454.01 243.98 C 454.17 246.05, 454.53 247.24, 454.77 251.10 C 455.02 254.97, 455.35 257.65, 455.24 263.32 C 455.14 268.98, 454.84 272.50, 454.25 279.43 C 453.65 286.36, 453.16 290.39, 452.25 297.97 C 451.34 305.55, 450.69 309.73, 449.70 317.32 C 448.72 324.91, 448.22 328.86, 447.33 335.92 C 446.44 342.97, 445.94 346.57, 445.24 352.59 C 444.54 358.60, 444.29 361.34, 443.83 366.00 C 443.37 370.67, 443.07 372.77, 442.94 375.92 C 442.82 379.08, 443.04 380.06, 443.20 381.79 C 443.36 383.51, 443.43 383.85, 443.74 384.55 C 444.04 385.26, 444.42 385.21, 444.72 385.30 C 445.02 385.39, 445.17 385.11, 445.22 384.99 C 445.27 384.88, 445.01 384.75, 444.96 384.72 C 444.91 384.69, 444.98 384.94, 444.99 384.85 C 445.00 384.77, 444.99 384.92, 445.02 384.29 C 445.05 383.66, 445.13 383.36, 445.15 381.70 C 445.16 380.04, 445.04 379.10, 445.10 375.99 C 445.16 372.87, 445.15 370.79, 445.45 366.13 C 445.74 361.48, 445.96 358.75, 446.58 352.73 C 447.19 346.72, 447.67 343.12, 448.53 336.06 C 449.38 329.01, 449.87 325.06, 450.86 317.47 C 451.85 309.88, 452.52 305.70, 453.48 298.12 C 454.44 290.54, 454.94 286.51, 455.66 279.56 C 456.38 272.61, 456.74 269.10, 457.06 263.38 C 457.38 257.67, 457.39 254.93, 457.26 250.98 C 457.13 247.03, 456.86 245.72, 456.41 243.63 C 455.96 241.53, 455.50 241.09, 455.01 240.52 C 454.52 239.94, 454.17 240.06, 453.97 240.75" style="stroke: black; fill: black;"/><path d="M 430.32,255.00 C 430.90 254.51, 431.09 253.57, 432.02 252.12 C 432.94 250.66, 433.41 249.80, 434.95 247.73 C 436.48 245.66, 437.34 244.18, 439.68 241.76 C 442.03 239.35, 443.48 237.92, 446.67 235.63 C 449.86 233.35, 451.78 232.15, 455.64 230.34 C 459.49 228.54, 461.79 227.61, 465.95 226.61 C 470.10 225.61, 472.47 225.35, 476.41 225.35 C 480.35 225.36, 482.47 225.66, 485.64 226.62 C 488.80 227.57, 490.21 228.38, 492.23 230.12 C 494.26 231.85, 494.96 232.94, 495.78 235.29 C 496.60 237.64, 496.68 238.93, 496.34 241.87 C 496.00 244.81, 495.47 246.60, 494.07 250.00 C 492.66 253.40, 491.50 255.29, 489.31 258.87 C 487.13 262.44, 485.59 264.35, 483.14 267.87 C 480.69 271.38, 479.20 273.21, 477.06 276.46 C 474.92 279.70, 473.82 281.16, 472.43 284.09 C 471.05 287.01, 470.55 288.37, 470.13 291.09 C 469.71 293.80, 469.78 295.10, 470.33 297.65 C 470.87 300.21, 471.45 301.44, 472.87 303.86 C 474.29 306.29, 475.41 307.41, 477.41 309.76 C 479.42 312.10, 480.66 313.21, 482.89 315.60 C 485.13 318.00, 486.37 319.22, 488.59 321.74 C 490.80 324.26, 492.01 325.53, 493.97 328.21 C 495.92 330.89, 496.88 332.35, 498.37 335.15 C 499.86 337.95, 500.55 339.47, 501.41 342.20 C 502.28 344.94, 502.61 346.31, 502.71 348.82 C 502.82 351.32, 502.65 352.48, 501.95 354.73 C 501.25 356.98, 500.66 358.03, 499.21 360.06 C 497.75 362.09, 496.87 363.07, 494.66 364.87 C 492.46 366.66, 491.13 367.55, 488.17 369.04 C 485.21 370.54, 483.38 371.19, 479.86 372.33 C 476.33 373.46, 474.31 373.95, 470.54 374.72 C 466.76 375.49, 464.72 375.77, 460.99 376.18 C 457.26 376.58, 455.41 376.67, 451.89 376.74 C 448.37 376.81, 446.56 376.78, 443.39 376.53 C 440.22 376.27, 438.61 376.01, 436.05 375.46 C 433.49 374.91, 432.33 374.63, 430.59 373.79 C 428.84 372.95, 428.12 372.52, 427.34 371.24 C 426.56 369.96, 426.67 368.95, 426.70 367.37 C 426.72 365.79, 427.18 364.88, 427.48 363.36 C 427.78 361.84, 428.31 360.58, 428.21 359.75 C 428.11 358.93, 427.68 358.68, 427.00 359.24 C 426.31 359.80, 425.42 360.93, 424.79 362.57 C 424.17 364.21, 423.77 365.44, 423.87 367.43 C 423.97 369.42, 424.18 370.81, 425.29 372.53 C 426.40 374.25, 427.38 374.89, 429.41 376.03 C 431.44 377.17, 432.69 377.61, 435.45 378.22 C 438.21 378.83, 439.92 378.90, 443.22 379.07 C 446.52 379.24, 448.35 379.21, 451.96 379.08 C 455.56 378.95, 457.43 378.85, 461.24 378.43 C 465.04 378.01, 467.12 377.73, 470.99 376.97 C 474.86 376.21, 476.91 375.74, 480.58 374.63 C 484.24 373.51, 486.14 372.89, 489.32 371.38 C 492.49 369.88, 494.00 369.02, 496.44 367.08 C 498.88 365.15, 499.91 364.03, 501.53 361.71 C 503.16 359.40, 503.77 358.13, 504.56 355.53 C 505.35 352.93, 505.58 351.54, 505.48 348.71 C 505.37 345.88, 504.98 344.33, 504.02 341.37 C 503.06 338.41, 502.27 336.85, 500.67 333.91 C 499.07 330.98, 498.05 329.48, 496.03 326.71 C 494.01 323.93, 492.77 322.63, 490.55 320.04 C 488.33 317.45, 487.09 316.19, 484.91 313.75 C 482.73 311.32, 481.56 310.15, 479.65 307.87 C 477.74 305.59, 476.72 304.51, 475.36 302.35 C 474.00 300.19, 473.39 299.25, 472.84 297.07 C 472.29 294.89, 472.25 293.86, 472.61 291.47 C 472.97 289.08, 473.37 287.87, 474.63 285.11 C 475.89 282.35, 476.86 280.87, 478.91 277.67 C 480.97 274.46, 482.44 272.61, 484.89 269.09 C 487.35 265.56, 488.92 263.66, 491.19 260.03 C 493.46 256.39, 494.73 254.50, 496.26 250.93 C 497.80 247.36, 498.50 245.46, 498.88 242.16 C 499.26 238.86, 499.17 237.23, 498.16 234.44 C 497.15 231.65, 496.21 230.23, 493.83 228.23 C 491.46 226.23, 489.76 225.44, 486.28 224.44 C 482.79 223.45, 480.56 223.22, 476.40 223.26 C 472.24 223.29, 469.80 223.60, 465.47 224.63 C 461.14 225.67, 458.79 226.62, 454.76 228.43 C 450.73 230.24, 448.75 231.44, 445.34 233.69 C 441.93 235.95, 440.32 237.31, 437.70 239.73 C 435.08 242.14, 433.84 243.50, 432.22 245.75 C 430.61 248.00, 430.24 249.21, 429.63 250.98 C 429.01 252.75, 429.00 253.80, 429.14 254.61 C 429.28 255.41, 429.75 255.50, 430.32 255.00" style="stroke: black; fill: black;"/><path d="M 529.20,277.45 C 528.72 278.72, 528.33 280.30, 527.94 283.94 C 527.56 287.58, 527.53 290.16, 527.28 295.63 C 527.03 301.11, 526.88 304.96, 526.70 311.31 C 526.52 317.66, 526.57 321.32, 526.36 327.38 C 526.16 333.44, 525.99 336.53, 525.68 341.61 C 525.38 346.70, 525.15 349.10, 524.84 352.79 C 524.53 356.49, 524.24 357.98, 524.14 360.09 C 524.04 362.21, 524.15 363.01, 524.35 363.38 C 524.56 363.75, 524.93 363.46, 525.16 361.95 C 525.39 360.43, 525.44 359.13, 525.49 355.81 C 525.53 352.50, 525.20 350.15, 525.38 345.36 C 525.56 340.57, 525.70 337.41, 526.39 331.86 C 527.08 326.32, 527.59 323.03, 528.84 317.63 C 530.10 312.22, 530.87 309.41, 532.66 304.84 C 534.46 300.27, 535.67 298.01, 537.79 294.78 C 539.92 291.54, 541.16 290.46, 543.29 288.66 C 545.41 286.86, 546.65 286.28, 548.40 285.77 C 550.15 285.26, 550.83 285.22, 552.04 286.11 C 553.24 287.00, 553.54 287.78, 554.42 290.22 C 555.30 292.66, 555.84 294.37, 556.45 298.33 C 557.06 302.29, 557.25 304.93, 557.49 310.00 C 557.73 315.08, 557.67 318.18, 557.64 323.70 C 557.61 329.23, 557.45 332.40, 557.36 337.62 C 557.26 342.84, 557.16 345.50, 557.15 349.79 C 557.15 354.09, 557.04 356.05, 557.33 359.08 C 557.62 362.12, 557.95 363.30, 558.59 364.95 C 559.24 366.61, 559.87 366.74, 560.57 367.36 C 561.26 367.98, 561.51 368.04, 562.07 368.06 C 562.64 368.08, 563.16 367.78, 563.39 367.44 C 563.63 367.11, 563.49 366.55, 563.24 366.39 C 563.00 366.23, 562.37 366.56, 562.18 366.64 C 562.00 366.73, 562.31 366.78, 562.32 366.83 C 562.34 366.87, 562.39 366.97, 562.26 366.88 C 562.12 366.78, 562.00 366.87, 561.65 366.36 C 561.30 365.85, 560.89 365.83, 560.50 364.33 C 560.12 362.82, 560.01 361.76, 559.73 358.85 C 559.44 355.94, 559.20 354.01, 559.07 349.77 C 558.94 345.53, 559.02 342.86, 559.08 337.65 C 559.15 332.44, 559.31 329.26, 559.38 323.72 C 559.46 318.17, 559.57 315.08, 559.45 309.93 C 559.34 304.79, 559.29 302.16, 558.81 298.01 C 558.33 293.86, 558.18 291.91, 557.05 289.19 C 555.92 286.47, 554.99 285.51, 553.15 284.41 C 551.32 283.31, 550.17 283.20, 547.89 283.68 C 545.61 284.17, 544.09 284.84, 541.75 286.85 C 539.40 288.87, 538.30 290.27, 536.16 293.74 C 534.03 297.21, 532.86 299.52, 531.07 304.22 C 529.29 308.93, 528.52 311.77, 527.23 317.25 C 525.94 322.73, 525.43 326.03, 524.61 331.62 C 523.78 337.21, 523.54 340.38, 523.12 345.22 C 522.70 350.06, 522.49 352.42, 522.50 355.80 C 522.51 359.17, 522.71 360.53, 523.17 362.10 C 523.63 363.67, 524.19 363.99, 524.81 363.64 C 525.43 363.29, 525.85 362.49, 526.26 360.34 C 526.66 358.20, 526.64 356.66, 526.85 352.93 C 527.06 349.20, 527.10 346.80, 527.31 341.69 C 527.52 336.59, 527.68 333.50, 527.89 327.43 C 528.09 321.37, 528.09 317.71, 528.34 311.37 C 528.59 305.03, 528.80 301.18, 529.14 295.73 C 529.47 290.28, 529.77 287.75, 530.02 284.12 C 530.27 280.50, 530.55 278.94, 530.39 277.60 C 530.22 276.27, 529.69 276.19, 529.20 277.45" style="stroke: black; fill: black;"/><path d="M 579.67,261.97 C 579.35 262.63, 579.29 263.26, 579.22 265.18 C 579.14 267.10, 579.09 268.36, 579.28 271.57 C 579.46 274.78, 579.88 276.84, 580.13 281.23 C 580.37 285.61, 580.46 288.38, 580.49 293.51 C 580.51 298.65, 580.36 301.55, 580.26 306.89 C 580.16 312.23, 580.12 315.11, 579.98 320.23 C 579.84 325.35, 579.66 327.93, 579.54 332.49 C 579.41 337.04, 579.33 339.20, 579.37 343.02 C 579.41 346.83, 579.49 348.57, 579.72 351.57 C 579.96 354.56, 580.26 355.96, 580.56 357.99 C 580.85 360.02, 580.93 360.69, 581.21 361.73 C 581.49 362.76, 581.75 362.87, 581.94 363.18 C 582.13 363.50, 582.09 363.27, 582.17 363.32 C 582.25 363.37, 582.21 363.45, 582.34 363.42 C 582.46 363.38, 582.65 363.53, 582.81 363.15 C 582.98 362.77, 583.11 362.61, 583.16 361.52 C 583.20 360.43, 583.22 359.74, 583.04 357.70 C 582.86 355.66, 582.57 354.28, 582.25 351.33 C 581.93 348.38, 581.61 346.72, 581.43 342.96 C 581.25 339.20, 581.30 337.06, 581.35 332.52 C 581.40 327.98, 581.55 325.39, 581.68 320.27 C 581.81 315.16, 581.84 312.28, 581.98 306.93 C 582.12 301.58, 582.30 298.68, 582.39 293.53 C 582.49 288.37, 582.48 285.58, 582.46 281.16 C 582.44 276.74, 582.43 274.65, 582.29 271.42 C 582.16 268.20, 582.08 266.93, 581.77 265.03 C 581.47 263.12, 581.21 262.49, 580.79 261.88 C 580.37 261.27, 579.98 261.31, 579.67 261.97" style="stroke: black; fill: black;"/><path d="M 560.90,248.92 C 561.21 248.25, 561.02 247.40, 561.24 245.74 C 561.46 244.09, 561.51 242.96, 562.01 240.65 C 562.51 238.33, 562.54 236.77, 563.73 234.19 C 564.93 231.60, 565.80 230.23, 567.98 227.71 C 570.16 225.20, 571.66 223.64, 574.62 221.61 C 577.57 219.58, 579.34 218.64, 582.76 217.56 C 586.18 216.49, 588.12 216.21, 591.73 216.23 C 595.34 216.25, 597.56 216.67, 600.81 217.67 C 604.05 218.66, 605.66 219.44, 607.95 221.21 C 610.24 222.98, 611.17 224.13, 612.24 226.53 C 613.31 228.93, 613.64 230.36, 613.30 233.21 C 612.97 236.07, 612.20 237.71, 610.58 240.81 C 608.96 243.91, 607.58 245.84, 605.18 248.72 C 602.78 251.59, 601.16 253.02, 598.57 255.18 C 595.99 257.34, 594.16 258.09, 592.28 259.52 C 590.40 260.95, 589.69 261.45, 589.17 262.32 C 588.64 263.19, 588.83 263.33, 589.65 263.87 C 590.46 264.40, 591.20 264.58, 593.25 264.99 C 595.30 265.40, 596.88 265.39, 599.91 265.92 C 602.93 266.46, 604.94 266.59, 608.39 267.67 C 611.84 268.74, 613.78 269.51, 617.16 271.30 C 620.54 273.09, 622.31 274.21, 625.29 276.61 C 628.27 279.00, 629.87 280.35, 632.04 283.26 C 634.22 286.16, 635.03 287.81, 636.18 291.14 C 637.32 294.46, 637.63 296.38, 637.78 299.89 C 637.93 303.40, 637.93 305.19, 636.91 308.67 C 635.89 312.16, 635.01 313.95, 632.69 317.31 C 630.36 320.67, 628.74 322.47, 625.29 325.48 C 621.84 328.50, 619.67 329.90, 615.43 332.39 C 611.20 334.88, 608.72 336.09, 604.12 337.93 C 599.51 339.77, 596.99 340.52, 592.42 341.60 C 587.85 342.67, 585.43 342.94, 581.25 343.31 C 577.08 343.69, 574.97 343.82, 571.55 343.49 C 568.13 343.15, 566.58 342.60, 564.15 341.63 C 561.71 340.66, 560.79 339.75, 559.38 338.63 C 557.97 337.51, 557.75 336.97, 557.10 336.02 C 556.46 335.07, 556.52 334.26, 556.15 333.88 C 555.78 333.49, 555.40 333.49, 555.26 334.09 C 555.12 334.68, 554.96 335.59, 555.47 336.87 C 555.97 338.14, 556.25 339.01, 557.79 340.46 C 559.33 341.90, 560.46 343.05, 563.18 344.09 C 565.90 345.14, 567.72 345.45, 571.37 345.68 C 575.03 345.91, 577.15 345.71, 581.45 345.24 C 585.74 344.77, 588.17 344.48, 592.84 343.34 C 597.50 342.20, 600.07 341.44, 604.77 339.56 C 609.47 337.68, 611.99 336.47, 616.34 333.94 C 620.69 331.41, 622.93 330.01, 626.53 326.92 C 630.14 323.83, 631.86 322.00, 634.35 318.47 C 636.84 314.95, 637.84 313.02, 638.97 309.29 C 640.10 305.55, 640.14 303.58, 640.00 299.80 C 639.86 296.03, 639.52 293.98, 638.28 290.41 C 637.04 286.84, 636.12 285.05, 633.81 281.94 C 631.49 278.83, 629.79 277.42, 626.69 274.88 C 623.58 272.35, 621.75 271.21, 618.27 269.25 C 614.79 267.30, 612.82 266.49, 609.28 265.12 C 605.75 263.76, 603.74 263.12, 600.59 262.43 C 597.45 261.75, 595.70 261.67, 593.55 261.70 C 591.39 261.74, 590.55 262.28, 589.82 262.60 C 589.10 262.92, 589.11 263.45, 589.92 263.30 C 590.72 263.15, 591.77 263.09, 593.85 261.87 C 595.92 260.64, 597.65 259.51, 600.30 257.19 C 602.94 254.87, 604.57 253.32, 607.06 250.27 C 609.56 247.22, 611.01 245.30, 612.76 241.95 C 614.51 238.59, 615.45 236.79, 615.81 233.50 C 616.17 230.21, 615.83 228.34, 614.57 225.49 C 613.30 222.64, 612.09 221.26, 609.47 219.24 C 606.86 217.22, 605.04 216.45, 601.50 215.39 C 597.95 214.33, 595.62 213.95, 591.74 213.95 C 587.85 213.94, 585.77 214.24, 582.08 215.37 C 578.39 216.51, 576.48 217.49, 573.27 219.60 C 570.05 221.71, 568.47 223.29, 566.00 225.93 C 563.53 228.56, 562.37 229.98, 560.90 232.79 C 559.43 235.60, 559.11 237.38, 558.63 239.97 C 558.15 242.56, 558.30 243.91, 558.51 245.73 C 558.72 247.55, 559.20 248.44, 559.68 249.07 C 560.16 249.71, 560.59 249.59, 560.90 248.92" style="stroke: black; fill: black;"/></svg>