<svg xmlns="http://www.w3.org/2000/svg" id="canvas" viewBox="110.963 275.985 513.944 137.579"><path d="M 154.12,281.02 C 153.99 280.62, 153.62 280.13, 152.96 279.73 C 152.31 279.33, 151.88 279.08, 150.85 279.02 C 149.83 278.97, 149.05 278.89, 147.84 279.45 C 146.64 280.00, 146.07 280.33, 144.84 281.81 C 143.62 283.29, 142.91 284.31, 141.72 286.85 C 140.54 289.39, 139.97 290.83, 138.91 294.51 C 137.84 298.19, 137.37 300.42, 136.40 305.25 C 135.43 310.09, 134.99 312.99, 134.07 318.69 C 133.15 324.40, 132.60 327.48, 131.80 333.77 C 131.00 340.07, 130.64 343.70, 130.07 350.17 C 129.49 356.64, 129.28 360.12, 128.94 366.13 C 128.60 372.14, 128.51 375.10, 128.39 380.22 C 128.27 385.34, 128.31 387.73, 128.34 391.71 C 128.37 395.70, 128.39 397.43, 128.52 400.13 C 128.66 402.83, 128.83 403.70, 129.02 405.21 C 129.22 406.72, 129.35 407.02, 129.51 407.69 C 129.66 408.36, 129.67 408.40, 129.79 408.57 C 129.90 408.74, 129.99 408.74, 130.09 408.56 C 130.19 408.37, 130.24 408.32, 130.28 407.63 C 130.32 406.94, 130.34 406.63, 130.30 405.11 C 130.26 403.59, 130.22 402.73, 130.07 400.05 C 129.92 397.36, 129.69 395.65, 129.56 391.69 C 129.42 387.73, 129.34 385.34, 129.40 380.24 C 129.46 375.14, 129.54 372.18, 129.85 366.18 C 130.16 360.18, 130.38 356.71, 130.95 350.25 C 131.52 343.79, 131.89 340.17, 132.72 333.89 C 133.55 327.61, 134.12 324.54, 135.10 318.87 C 136.08 313.19, 136.56 310.29, 137.62 305.51 C 138.69 300.74, 139.23 298.54, 140.44 294.99 C 141.64 291.44, 142.45 290.17, 143.64 287.78 C 144.84 285.39, 145.41 284.38, 146.40 283.04 C 147.40 281.70, 147.75 281.51, 148.62 281.09 C 149.49 280.67, 150.02 280.90, 150.75 280.94 C 151.47 280.98, 151.68 281.12, 152.25 281.29 C 152.83 281.45, 153.23 281.80, 153.61 281.75 C 153.98 281.69, 154.24 281.42, 154.12 281.02" style="stroke: black; fill: black;"/><path d="M 114.69,342.93 C 114.87 342.91, 114.68 342.88, 115.01 342.72 C 115.34 342.56, 115.43 342.57, 116.36 342.13 C 117.29 341.69, 117.90 341.30, 119.65 340.51 C 121.40 339.72, 122.71 339.26, 125.12 338.18 C 127.52 337.09, 128.96 336.29, 131.69 335.10 C 134.42 333.91, 136.03 333.35, 138.75 332.21 C 141.47 331.07, 142.90 330.45, 145.29 329.40 C 147.68 328.36, 148.85 327.88, 150.70 326.99 C 152.55 326.09, 153.31 325.42, 154.54 324.94 C 155.76 324.45, 156.20 324.19, 156.82 324.56 C 157.44 324.93, 157.49 325.34, 157.65 326.79 C 157.80 328.23, 157.70 329.33, 157.59 331.79 C 157.48 334.25, 157.38 336.01, 157.10 339.09 C 156.81 342.17, 156.53 344.21, 156.19 347.20 C 155.85 350.19, 155.63 351.73, 155.41 354.04 C 155.18 356.34, 155.14 357.31, 155.08 358.74 C 155.02 360.16, 155.05 360.56, 155.12 361.16 C 155.18 361.77, 155.32 361.66, 155.42 361.77 C 155.51 361.88, 155.55 361.73, 155.57 361.72 C 155.59 361.71, 155.49 361.70, 155.51 361.72 C 155.53 361.73, 155.55 361.89, 155.67 361.80 C 155.78 361.70, 155.91 361.83, 156.09 361.25 C 156.26 360.67, 156.33 360.29, 156.56 358.89 C 156.80 357.49, 156.93 356.55, 157.26 354.26 C 157.60 351.97, 157.84 350.45, 158.24 347.45 C 158.64 344.46, 158.95 342.42, 159.28 339.30 C 159.60 336.18, 159.87 334.41, 159.87 331.84 C 159.87 329.27, 159.78 328.08, 159.27 326.44 C 158.77 324.80, 158.39 324.21, 157.35 323.63 C 156.32 323.05, 155.58 323.19, 154.11 323.54 C 152.63 323.89, 151.88 324.55, 149.97 325.37 C 148.05 326.19, 146.93 326.64, 144.54 327.64 C 142.14 328.64, 140.73 329.28, 138.00 330.38 C 135.27 331.49, 133.64 332.04, 130.87 333.16 C 128.10 334.28, 126.61 334.94, 124.16 335.97 C 121.71 337.00, 120.39 337.44, 118.61 338.32 C 116.83 339.20, 116.17 339.67, 115.26 340.38 C 114.35 341.10, 114.30 341.43, 114.08 341.91 C 113.85 342.39, 114.01 342.59, 114.13 342.79 C 114.25 343.00, 114.52 342.94, 114.69 342.93" style="stroke: black; fill: black;"/><path d="M 161.83,299.92 C 161.72 299.65, 161.56 299.57, 161.49 299.63 C 161.42 299.68, 161.41 299.96, 161.49 300.21 C 161.56 300.45, 161.74 300.62, 161.85 300.85 C 161.96 301.07, 162.01 301.29, 162.04 301.31 C 162.08 301.34, 162.07 301.24, 162.02 300.97 C 161.98 300.69, 161.94 300.18, 161.83 299.92" style="stroke: black; fill: black;"/><path d="M 175.97,321.97 C 175.71 322.34, 175.59 322.67, 175.35 323.91 C 175.11 325.14, 174.96 325.97, 174.78 328.14 C 174.59 330.31, 174.57 331.84, 174.42 334.76 C 174.27 337.68, 174.22 339.56, 174.03 342.73 C 173.85 345.90, 173.68 347.74, 173.49 350.61 C 173.30 353.47, 173.13 355.03, 173.09 357.05 C 173.04 359.06, 173.09 359.81, 173.27 360.68 C 173.45 361.56, 173.58 361.74, 174.00 361.43 C 174.42 361.13, 174.82 360.75, 175.36 359.16 C 175.90 357.57, 176.15 356.33, 176.71 353.51 C 177.27 350.68, 177.29 348.67, 178.17 345.03 C 179.04 341.40, 179.69 339.03, 181.08 335.33 C 182.46 331.63, 183.37 329.52, 185.09 326.51 C 186.80 323.51, 187.89 322.20, 189.65 320.31 C 191.41 318.42, 192.39 317.72, 193.89 317.06 C 195.39 316.40, 196.06 316.38, 197.15 317.01 C 198.24 317.64, 198.61 318.39, 199.33 320.21 C 200.04 322.04, 200.31 323.35, 200.73 326.12 C 201.14 328.90, 201.29 330.74, 201.39 334.10 C 201.48 337.46, 201.31 339.60, 201.19 342.93 C 201.06 346.26, 200.85 348.00, 200.75 350.75 C 200.65 353.49, 200.62 354.70, 200.68 356.65 C 200.74 358.61, 200.86 359.74, 201.06 360.51 C 201.26 361.29, 201.48 361.28, 201.69 360.51 C 201.89 359.75, 201.89 358.64, 202.09 356.70 C 202.28 354.77, 202.47 353.59, 202.65 350.85 C 202.83 348.11, 202.87 346.35, 202.99 343.00 C 203.11 339.64, 203.30 337.51, 203.27 334.07 C 203.24 330.63, 203.29 328.72, 202.83 325.80 C 202.36 322.88, 201.95 321.46, 200.94 319.48 C 199.92 317.50, 199.24 316.64, 197.74 315.90 C 196.23 315.16, 195.26 315.14, 193.39 315.78 C 191.53 316.43, 190.35 317.14, 188.41 319.13 C 186.48 321.12, 185.47 322.60, 183.71 325.73 C 181.95 328.86, 181.06 331.00, 179.60 334.77 C 178.14 338.53, 177.47 340.92, 176.42 344.57 C 175.37 348.22, 174.92 350.19, 174.35 353.03 C 173.77 355.87, 173.69 357.12, 173.54 358.77 C 173.38 360.41, 173.42 360.87, 173.56 361.26 C 173.70 361.65, 173.96 361.55, 174.23 360.73 C 174.50 359.92, 174.63 359.18, 174.89 357.18 C 175.15 355.19, 175.31 353.62, 175.54 350.76 C 175.77 347.89, 175.80 346.04, 176.04 342.87 C 176.28 339.69, 176.54 337.82, 176.75 334.90 C 176.95 331.98, 177.01 330.44, 177.05 328.26 C 177.10 326.08, 177.03 325.26, 176.95 324.01 C 176.87 322.76, 176.85 322.43, 176.66 322.02 C 176.46 321.61, 176.23 321.59, 175.97 321.97" style="stroke: black; fill: black;"/><path d="M 234.42,326.02 C 234.57 325.57, 234.58 324.96, 234.38 324.03 C 234.18 323.10, 234.06 322.35, 233.42 321.37 C 232.79 320.39, 232.29 319.71, 231.20 319.14 C 230.11 318.56, 229.42 318.25, 227.96 318.48 C 226.51 318.71, 225.68 319.02, 223.94 320.30 C 222.21 321.59, 221.11 322.51, 219.30 324.91 C 217.50 327.30, 216.49 329.00, 214.91 332.27 C 213.32 335.55, 212.52 337.70, 211.38 341.27 C 210.24 344.84, 209.75 346.88, 209.21 350.12 C 208.66 353.36, 208.53 355.01, 208.68 357.45 C 208.82 359.90, 209.23 360.94, 209.95 362.33 C 210.67 363.73, 211.18 364.09, 212.29 364.44 C 213.39 364.79, 214.09 364.71, 215.48 364.07 C 216.87 363.43, 217.73 362.92, 219.22 361.24 C 220.71 359.57, 221.42 358.54, 222.93 355.70 C 224.44 352.86, 225.14 351.06, 226.78 347.05 C 228.42 343.04, 229.42 340.58, 231.15 335.64 C 232.88 330.70, 233.83 327.72, 235.45 322.36 C 237.06 316.99, 237.89 313.84, 239.22 308.83 C 240.54 303.81, 241.20 301.23, 242.06 297.29 C 242.92 293.36, 243.32 291.66, 243.53 289.14 C 243.73 286.62, 243.52 285.64, 243.08 284.69 C 242.64 283.74, 242.08 283.51, 241.31 284.39 C 240.54 285.27, 239.92 286.21, 239.24 289.07 C 238.56 291.92, 238.46 294.09, 237.91 298.65 C 237.37 303.22, 237.05 306.26, 236.53 311.89 C 236.01 317.53, 235.68 321.06, 235.32 326.83 C 234.95 332.60, 234.81 335.64, 234.71 340.73 C 234.61 345.82, 234.66 348.24, 234.82 352.26 C 234.98 356.28, 235.13 357.99, 235.51 360.82 C 235.89 363.66, 236.18 364.74, 236.72 366.44 C 237.25 368.14, 237.66 368.53, 238.17 369.34 C 238.69 370.15, 238.90 370.26, 239.28 370.50 C 239.66 370.75, 239.90 370.63, 240.09 370.57 C 240.28 370.50, 240.26 370.26, 240.23 370.18 C 240.21 370.09, 239.99 370.15, 239.96 370.15 C 239.92 370.16, 240.09 370.24, 240.07 370.19 C 240.05 370.13, 240.03 370.16, 239.85 369.88 C 239.67 369.61, 239.52 369.56, 239.15 368.80 C 238.79 368.03, 238.46 367.70, 238.04 366.06 C 237.62 364.42, 237.46 363.38, 237.06 360.61 C 236.66 357.83, 236.30 356.17, 236.04 352.20 C 235.79 348.23, 235.72 345.81, 235.78 340.75 C 235.85 335.69, 235.99 332.65, 236.37 326.90 C 236.76 321.15, 237.10 317.62, 237.71 312.01 C 238.32 306.40, 238.73 303.37, 239.43 298.86 C 240.13 294.36, 240.68 292.30, 241.21 289.49 C 241.74 286.68, 241.84 285.74, 242.07 284.82 C 242.31 283.89, 242.39 284.03, 242.38 284.86 C 242.37 285.69, 242.34 286.55, 242.02 288.98 C 241.71 291.42, 241.59 293.12, 240.81 297.03 C 240.03 300.95, 239.42 303.55, 238.14 308.55 C 236.86 313.55, 236.02 316.70, 234.40 322.04 C 232.78 327.38, 231.82 330.35, 230.03 335.24 C 228.24 340.13, 227.20 342.57, 225.45 346.48 C 223.70 350.39, 222.81 352.09, 221.26 354.78 C 219.71 357.47, 219.01 358.35, 217.70 359.94 C 216.39 361.52, 215.74 361.99, 214.72 362.69 C 213.69 363.39, 213.29 363.61, 212.57 363.44 C 211.86 363.26, 211.57 363.02, 211.13 361.81 C 210.69 360.60, 210.43 359.66, 210.38 357.38 C 210.34 355.10, 210.39 353.52, 210.91 350.40 C 211.42 347.28, 211.84 345.24, 212.96 341.77 C 214.09 338.31, 214.90 336.19, 216.52 333.08 C 218.13 329.97, 219.29 328.46, 221.03 326.22 C 222.76 323.98, 223.74 323.11, 225.19 321.89 C 226.64 320.66, 227.26 320.35, 228.28 320.10 C 229.30 319.85, 229.62 320.17, 230.29 320.65 C 230.96 321.13, 231.15 321.69, 231.61 322.49 C 232.07 323.29, 232.20 323.91, 232.60 324.66 C 233.00 325.41, 233.24 325.99, 233.61 326.26 C 233.97 326.53, 234.27 326.47, 234.42 326.02" style="stroke: black; fill: black;"/><path d="M 288.00,316.74 C 287.74 317.36, 287.57 318.14, 287.48 319.85 C 287.39 321.56, 287.41 322.79, 287.55 325.30 C 287.68 327.80, 287.80 329.54, 288.14 332.36 C 288.49 335.18, 288.73 336.81, 289.28 339.38 C 289.83 341.95, 290.20 343.16, 290.88 345.21 C 291.56 347.25, 291.80 348.18, 292.68 349.60 C 293.57 351.03, 294.09 351.64, 295.31 352.33 C 296.52 353.01, 297.29 353.18, 298.77 353.02 C 300.25 352.86, 301.03 352.55, 302.69 351.53 C 304.36 350.52, 305.30 349.91, 307.08 347.95 C 308.85 345.99, 309.79 344.58, 311.58 341.73 C 313.36 338.89, 314.34 336.94, 316.02 333.72 C 317.70 330.50, 318.56 328.59, 319.98 325.64 C 321.40 322.68, 322.18 321.09, 323.12 318.95 C 324.05 316.80, 324.34 315.76, 324.65 314.91 C 324.97 314.05, 324.80 313.96, 324.70 314.68 C 324.59 315.41, 324.35 316.20, 324.13 318.55 C 323.91 320.90, 323.88 322.61, 323.61 326.43 C 323.33 330.25, 323.18 332.75, 322.75 337.66 C 322.32 342.57, 322.05 345.54, 321.46 350.96 C 320.88 356.38, 320.52 359.40, 319.81 364.74 C 319.10 370.09, 318.74 372.80, 317.92 377.69 C 317.11 382.58, 316.62 385.06, 315.74 389.19 C 314.86 393.32, 314.35 395.23, 313.52 398.34 C 312.69 401.44, 312.27 402.70, 311.59 404.72 C 310.91 406.75, 310.63 407.48, 310.12 408.48 C 309.61 409.47, 309.41 409.58, 309.04 409.71 C 308.68 409.84, 308.52 409.65, 308.28 409.11 C 308.03 408.58, 307.87 408.31, 307.81 407.04 C 307.74 405.76, 307.87 404.68, 307.95 402.75 C 308.03 400.81, 308.20 399.33, 308.21 397.36 C 308.22 395.40, 308.22 393.82, 308.00 392.91 C 307.78 392.00, 307.53 391.97, 307.12 392.82 C 306.72 393.67, 306.34 395.19, 305.99 397.16 C 305.63 399.13, 305.41 400.62, 305.36 402.67 C 305.32 404.71, 305.38 405.94, 305.77 407.38 C 306.16 408.82, 306.63 409.26, 307.33 409.88 C 308.02 410.51, 308.48 410.66, 309.24 410.51 C 310.01 410.36, 310.39 410.17, 311.15 409.11 C 311.91 408.05, 312.27 407.31, 313.03 405.23 C 313.79 403.15, 314.17 401.86, 314.95 398.70 C 315.73 395.54, 316.12 393.60, 316.93 389.43 C 317.74 385.26, 318.21 382.77, 319.00 377.86 C 319.78 372.95, 320.14 370.24, 320.86 364.88 C 321.57 359.53, 321.94 356.50, 322.58 351.09 C 323.22 345.67, 323.51 342.69, 324.07 337.79 C 324.63 332.89, 324.98 330.42, 325.39 326.59 C 325.80 322.76, 326.12 321.07, 326.13 318.65 C 326.15 316.24, 325.91 315.37, 325.47 314.52 C 325.02 313.67, 324.71 313.66, 323.91 314.38 C 323.11 315.11, 322.57 316.05, 321.46 318.15 C 320.35 320.25, 319.76 321.91, 318.36 324.86 C 316.96 327.81, 316.15 329.74, 314.47 332.91 C 312.79 336.07, 311.75 337.97, 309.96 340.69 C 308.16 343.42, 307.16 344.68, 305.50 346.53 C 303.84 348.39, 303.05 348.97, 301.66 349.96 C 300.27 350.95, 299.67 351.25, 298.54 351.48 C 297.41 351.71, 296.91 351.64, 296.01 351.11 C 295.10 350.58, 294.71 350.11, 294.03 348.82 C 293.35 347.54, 293.14 346.65, 292.59 344.69 C 292.05 342.72, 291.73 341.51, 291.31 338.99 C 290.89 336.47, 290.77 334.87, 290.48 332.09 C 290.19 329.32, 290.11 327.58, 289.86 325.12 C 289.61 322.65, 289.44 321.46, 289.22 319.79 C 289.00 318.11, 289.01 317.36, 288.76 316.75 C 288.52 316.14, 288.26 316.12, 288.00 316.74" style="stroke: black; fill: black;"/><path d="M 344.49,308.90 C 343.92 309.27, 343.31 309.76, 342.24 311.20 C 341.17 312.65, 340.32 313.59, 339.15 316.12 C 337.97 318.65, 337.32 320.45, 336.36 323.86 C 335.40 327.28, 334.96 329.45, 334.35 333.18 C 333.73 336.91, 333.44 339.04, 333.31 342.52 C 333.18 346.00, 333.29 347.85, 333.71 350.59 C 334.12 353.33, 334.44 354.50, 335.40 356.21 C 336.35 357.92, 337.09 358.49, 338.49 359.12 C 339.89 359.75, 340.76 359.73, 342.39 359.35 C 344.03 358.98, 344.98 358.56, 346.68 357.25 C 348.38 355.94, 349.34 355.01, 350.89 352.79 C 352.44 350.56, 353.13 349.08, 354.42 346.11 C 355.71 343.14, 356.31 341.34, 357.35 337.95 C 358.39 334.56, 358.90 332.60, 359.64 329.17 C 360.38 325.74, 360.77 323.82, 361.04 320.80 C 361.30 317.77, 361.33 316.30, 360.95 314.04 C 360.56 311.78, 360.13 310.79, 359.11 309.48 C 358.10 308.17, 357.32 307.83, 355.89 307.49 C 354.47 307.16, 353.35 307.34, 352.00 307.81 C 350.64 308.28, 349.62 309.26, 349.14 309.83 C 348.66 310.40, 348.91 310.72, 349.59 310.65 C 350.27 310.58, 351.32 309.82, 352.53 309.48 C 353.73 309.13, 354.51 308.75, 355.61 308.92 C 356.72 309.08, 357.29 309.21, 358.03 310.28 C 358.77 311.35, 359.08 312.20, 359.32 314.28 C 359.56 316.35, 359.50 317.73, 359.24 320.64 C 358.97 323.55, 358.70 325.46, 358.00 328.82 C 357.29 332.18, 356.78 334.13, 355.72 337.43 C 354.66 340.74, 354.00 342.50, 352.68 345.33 C 351.37 348.16, 350.60 349.49, 349.15 351.58 C 347.71 353.66, 346.88 354.49, 345.44 355.74 C 344.01 356.99, 343.26 357.40, 341.97 357.84 C 340.68 358.28, 340.06 358.41, 339.00 357.95 C 337.95 357.50, 337.39 357.07, 336.68 355.55 C 335.98 354.03, 335.82 352.93, 335.47 350.34 C 335.13 347.74, 334.87 345.95, 334.97 342.58 C 335.07 339.20, 335.34 337.09, 335.98 333.45 C 336.62 329.82, 337.13 327.69, 338.16 324.40 C 339.20 321.12, 340.08 319.50, 341.18 317.04 C 342.28 314.58, 342.88 313.63, 343.67 312.09 C 344.45 310.55, 344.93 309.98, 345.10 309.34 C 345.27 308.70, 345.06 308.52, 344.49 308.90" style="stroke: black; fill: black;"/><path d="M 370.03,307.08 C 369.83 307.31, 369.79 307.34, 369.61 308.22 C 369.43 309.10, 369.37 309.67, 369.13 311.47 C 368.89 313.27, 368.57 314.43, 368.40 317.23 C 368.23 320.03, 368.33 321.98, 368.28 325.45 C 368.24 328.92, 368.17 331.06, 368.18 334.58 C 368.19 338.10, 368.14 340.05, 368.34 343.07 C 368.53 346.09, 368.74 347.51, 369.15 349.69 C 369.56 351.87, 369.79 352.69, 370.40 353.98 C 371.01 355.28, 371.38 355.70, 372.20 356.15 C 373.02 356.60, 373.52 356.65, 374.50 356.23 C 375.49 355.81, 376.09 355.44, 377.13 354.04 C 378.16 352.65, 378.72 351.69, 379.67 349.26 C 380.62 346.84, 380.98 345.24, 381.89 341.92 C 382.79 338.60, 383.31 336.46, 384.19 332.67 C 385.07 328.89, 385.46 326.57, 386.28 323.00 C 387.10 319.42, 387.70 317.48, 388.31 314.78 C 388.91 312.08, 389.15 310.95, 389.30 309.51 C 389.45 308.08, 389.30 307.61, 389.06 307.62 C 388.83 307.63, 388.46 308.10, 388.11 309.58 C 387.75 311.06, 387.50 312.32, 387.28 315.02 C 387.05 317.72, 387.08 319.56, 386.98 323.07 C 386.87 326.57, 386.85 328.81, 386.76 332.54 C 386.67 336.27, 386.55 338.38, 386.52 341.73 C 386.48 345.09, 386.42 346.76, 386.60 349.32 C 386.78 351.89, 386.98 352.98, 387.42 354.56 C 387.85 356.14, 388.11 356.62, 388.78 357.23 C 389.44 357.84, 390.00 357.78, 390.74 357.61 C 391.47 357.43, 391.99 356.96, 392.46 356.35 C 392.93 355.75, 393.15 355.04, 393.10 354.58 C 393.06 354.12, 392.64 353.91, 392.23 354.06 C 391.82 354.20, 391.44 354.77, 391.06 355.29 C 390.68 355.80, 390.64 356.36, 390.32 356.63 C 390.01 356.89, 389.77 357.09, 389.47 356.62 C 389.17 356.14, 389.04 355.74, 388.82 354.26 C 388.60 352.78, 388.50 351.72, 388.37 349.22 C 388.25 346.71, 388.20 345.07, 388.22 341.75 C 388.23 338.42, 388.30 336.31, 388.45 332.59 C 388.59 328.88, 388.69 326.65, 388.93 323.16 C 389.18 319.68, 389.53 317.88, 389.68 315.19 C 389.83 312.50, 389.80 311.23, 389.68 309.71 C 389.57 308.19, 389.44 307.68, 389.12 307.58 C 388.80 307.48, 388.62 307.87, 388.09 309.22 C 387.56 310.57, 387.15 311.66, 386.47 314.34 C 385.79 317.02, 385.46 319.05, 384.68 322.64 C 383.90 326.23, 383.51 328.54, 382.59 332.29 C 381.66 336.04, 381.06 338.16, 380.06 341.39 C 379.06 344.62, 378.49 346.12, 377.57 348.44 C 376.66 350.76, 376.24 351.64, 375.49 352.98 C 374.75 354.32, 374.42 354.66, 373.87 355.13 C 373.31 355.60, 373.16 355.65, 372.72 355.32 C 372.28 354.99, 372.04 354.66, 371.66 353.48 C 371.28 352.30, 371.11 351.52, 370.81 349.41 C 370.51 347.31, 370.34 345.93, 370.16 342.96 C 369.99 339.99, 369.93 338.07, 369.94 334.58 C 369.95 331.09, 370.03 328.95, 370.20 325.51 C 370.38 322.08, 370.59 320.17, 370.82 317.40 C 371.05 314.63, 371.29 313.48, 371.34 311.65 C 371.40 309.82, 371.25 309.17, 371.11 308.25 C 370.97 307.33, 370.84 307.29, 370.62 307.06 C 370.40 306.82, 370.23 306.84, 370.03 307.08" style="stroke: black; fill: black;"/><path d="M 405.45,318.32 C 405.29 318.48, 405.31 318.32, 405.16 319.03 C 405.00 319.74, 404.81 320.24, 404.68 321.86 C 404.55 323.48, 404.61 324.64, 404.50 327.15 C 404.39 329.65, 404.31 331.40, 404.14 334.37 C 403.98 337.34, 403.88 339.14, 403.68 342.01 C 403.47 344.88, 403.28 346.33, 403.10 348.70 C 402.92 351.07, 402.83 352.16, 402.78 353.86 C 402.72 355.56, 402.72 356.33, 402.82 357.20 C 402.92 358.07, 403.06 358.31, 403.26 358.21 C 403.45 358.10, 403.67 357.82, 403.79 356.67 C 403.92 355.52, 403.89 354.58, 403.89 352.46 C 403.90 350.34, 403.79 348.91, 403.82 346.07 C 403.85 343.22, 403.75 341.40, 404.03 338.25 C 404.31 335.11, 404.56 333.42, 405.22 330.34 C 405.88 327.27, 406.35 325.56, 407.34 322.87 C 408.34 320.18, 408.96 318.93, 410.18 316.88 C 411.41 314.84, 412.15 314.01, 413.47 312.64 C 414.80 311.28, 415.47 310.79, 416.81 310.06 C 418.16 309.32, 418.92 309.20, 420.19 308.96 C 421.46 308.73, 422.17 308.91, 423.16 308.88 C 424.16 308.84, 424.54 308.77, 425.18 308.80 C 425.82 308.83, 426.06 309.09, 426.35 309.04 C 426.63 308.99, 426.78 308.83, 426.61 308.54 C 426.43 308.25, 426.14 307.86, 425.46 307.59 C 424.78 307.32, 424.31 307.24, 423.19 307.18 C 422.07 307.11, 421.30 306.99, 419.87 307.27 C 418.43 307.56, 417.54 307.78, 416.02 308.62 C 414.50 309.46, 413.76 310.01, 412.29 311.47 C 410.82 312.94, 409.99 313.80, 408.66 315.95 C 407.32 318.10, 406.65 319.43, 405.61 322.23 C 404.57 325.03, 404.16 326.80, 403.46 329.96 C 402.76 333.12, 402.51 334.84, 402.11 338.05 C 401.71 341.26, 401.58 343.11, 401.45 346.00 C 401.32 348.90, 401.34 350.37, 401.48 352.54 C 401.61 354.70, 401.81 355.65, 402.14 356.82 C 402.46 357.98, 402.73 358.24, 403.10 358.35 C 403.47 358.45, 403.72 358.19, 403.99 357.32 C 404.26 356.45, 404.27 355.67, 404.47 353.98 C 404.67 352.29, 404.72 351.23, 404.98 348.87 C 405.23 346.51, 405.47 345.06, 405.75 342.19 C 406.03 339.32, 406.13 337.51, 406.38 334.53 C 406.63 331.54, 406.89 329.79, 407.01 327.26 C 407.13 324.73, 407.08 323.55, 406.99 321.89 C 406.90 320.23, 406.79 319.71, 406.58 318.98 C 406.37 318.24, 406.16 318.33, 405.93 318.20 C 405.71 318.07, 405.60 318.15, 405.45 318.32" style="stroke: black; fill: black;"/><path d="M 487.96,309.45 C 487.76 309.71, 487.67 309.86, 487.57 310.74 C 487.48 311.61, 487.54 312.07, 487.49 313.82 C 487.44 315.56, 487.32 316.71, 487.32 319.48 C 487.31 322.25, 487.54 324.10, 487.47 327.67 C 487.41 331.24, 487.29 333.55, 486.99 337.33 C 486.70 341.12, 486.44 343.23, 486.02 346.60 C 485.60 349.97, 485.28 351.63, 484.90 354.19 C 484.52 356.74, 484.34 357.81, 484.11 359.36 C 483.88 360.90, 483.84 361.22, 483.76 361.91 C 483.68 362.61, 483.67 362.62, 483.72 362.82 C 483.77 363.03, 483.83 363.06, 484.00 362.92 C 484.16 362.78, 484.23 362.79, 484.54 362.14 C 484.85 361.49, 485.11 361.20, 485.53 359.66 C 485.96 358.13, 486.24 357.04, 486.67 354.47 C 487.10 351.89, 487.28 350.20, 487.67 346.80 C 488.06 343.40, 488.30 341.28, 488.63 337.47 C 488.97 333.66, 489.12 331.34, 489.33 327.74 C 489.54 324.15, 489.63 322.30, 489.69 319.51 C 489.76 316.71, 489.77 315.54, 489.64 313.77 C 489.52 311.99, 489.25 311.51, 489.04 310.64 C 488.83 309.77, 488.81 309.67, 488.60 309.44 C 488.38 309.20, 488.16 309.19, 487.96 309.45" style="stroke: black; fill: black;"/><path d="M 492.78,290.54 C 492.98 290.25, 493.07 289.87, 492.96 289.63 C 492.86 289.39, 492.60 289.32, 492.27 289.34 C 491.94 289.35, 491.51 289.52, 491.32 289.70 C 491.12 289.87, 491.12 290.18, 491.29 290.20 C 491.45 290.22, 492.05 289.91, 492.15 289.79 C 492.25 289.67, 492.01 289.53, 491.80 289.61 C 491.59 289.70, 491.24 289.95, 491.09 290.21 C 490.94 290.46, 490.87 290.72, 491.04 290.89 C 491.21 291.07, 491.60 291.15, 491.95 291.08 C 492.29 291.01, 492.57 290.83, 492.78 290.54" style="stroke: black; fill: black;"/><path d="M 525.04,315.52 C 524.82 315.16, 524.48 314.80, 523.63 314.45 C 522.79 314.09, 522.16 313.73, 520.82 313.74 C 519.48 313.74, 518.60 313.72, 516.93 314.49 C 515.27 315.26, 514.30 315.77, 512.49 317.58 C 510.68 319.38, 509.62 320.66, 507.87 323.52 C 506.12 326.38, 505.23 328.26, 503.74 331.88 C 502.24 335.51, 501.45 337.81, 500.42 341.67 C 499.38 345.52, 498.91 347.70, 498.57 351.14 C 498.22 354.58, 498.21 356.28, 498.69 358.85 C 499.17 361.42, 499.81 362.48, 500.98 363.98 C 502.15 365.49, 502.97 365.95, 504.54 366.39 C 506.10 366.84, 507.02 366.80, 508.81 366.21 C 510.59 365.62, 511.65 365.16, 513.45 363.46 C 515.25 361.75, 516.11 360.58, 517.79 357.68 C 519.47 354.77, 520.23 352.94, 521.87 348.93 C 523.50 344.92, 524.36 342.45, 525.96 337.63 C 527.56 332.82, 528.37 329.93, 529.86 324.86 C 531.34 319.79, 532.13 317.00, 533.38 312.26 C 534.64 307.52, 535.23 305.12, 536.14 301.16 C 537.05 297.19, 537.47 295.31, 537.93 292.42 C 538.39 289.53, 538.48 288.36, 538.43 286.73 C 538.38 285.10, 538.18 284.54, 537.70 284.28 C 537.21 284.03, 536.70 284.23, 536.03 285.46 C 535.36 286.68, 534.94 287.76, 534.36 290.41 C 533.78 293.05, 533.69 294.85, 533.13 298.69 C 532.56 302.53, 532.15 304.95, 531.53 309.59 C 530.91 314.23, 530.51 316.96, 530.03 321.87 C 529.54 326.78, 529.28 329.50, 529.11 334.14 C 528.93 338.77, 528.97 341.17, 529.14 345.04 C 529.32 348.90, 529.39 350.64, 529.98 353.48 C 530.58 356.32, 531.05 357.47, 532.12 359.24 C 533.19 361.01, 533.84 361.67, 535.35 362.35 C 536.85 363.02, 537.76 363.03, 539.66 362.62 C 541.56 362.22, 542.69 361.80, 544.85 360.34 C 547.01 358.87, 548.24 357.76, 550.46 355.32 C 552.68 352.88, 553.84 351.30, 555.94 348.12 C 558.04 344.94, 559.12 342.97, 560.97 339.40 C 562.82 335.83, 563.77 333.75, 565.20 330.27 C 566.64 326.80, 567.26 325.00, 568.14 322.03 C 569.03 319.06, 569.33 317.64, 569.63 315.44 C 569.93 313.24, 569.90 312.37, 569.65 311.01 C 569.41 309.66, 569.15 309.20, 568.42 308.66 C 567.68 308.12, 567.10 307.89, 565.99 308.33 C 564.89 308.76, 564.16 309.24, 562.90 310.84 C 561.63 312.44, 560.92 313.60, 559.66 316.32 C 558.40 319.04, 557.70 320.86, 556.60 324.44 C 555.50 328.01, 554.92 330.35, 554.18 334.21 C 553.45 338.07, 553.10 340.22, 552.92 343.75 C 552.74 347.27, 552.76 349.00, 553.28 351.85 C 553.80 354.70, 554.34 355.98, 555.51 358.01 C 556.68 360.04, 557.46 360.89, 559.13 362.01 C 560.80 363.12, 562.01 363.28, 563.86 363.59 C 565.72 363.91, 566.87 363.80, 568.40 363.59 C 569.92 363.39, 570.90 362.93, 571.50 362.58 C 572.09 362.23, 572.01 361.97, 571.37 361.84 C 570.73 361.72, 569.73 361.94, 568.29 361.94 C 566.85 361.93, 565.81 362.05, 564.15 361.80 C 562.49 361.55, 561.44 361.60, 559.99 360.68 C 558.54 359.77, 557.90 359.06, 556.89 357.23 C 555.89 355.40, 555.46 354.22, 554.98 351.54 C 554.51 348.86, 554.36 347.23, 554.51 343.82 C 554.66 340.42, 554.99 338.28, 555.74 334.51 C 556.50 330.75, 557.10 328.43, 558.28 324.98 C 559.47 321.54, 560.41 319.86, 561.67 317.28 C 562.93 314.69, 563.59 313.60, 564.58 312.04 C 565.58 310.48, 565.98 310.02, 566.63 309.49 C 567.29 308.95, 567.51 309.02, 567.86 309.36 C 568.21 309.69, 568.35 309.99, 568.38 311.15 C 568.41 312.32, 568.39 313.11, 568.02 315.19 C 567.65 317.27, 567.36 318.65, 566.52 321.55 C 565.67 324.45, 565.17 326.27, 563.80 329.70 C 562.42 333.13, 561.49 335.21, 559.65 338.71 C 557.81 342.21, 556.72 344.15, 554.60 347.22 C 552.49 350.28, 551.26 351.74, 549.07 354.03 C 546.89 356.32, 545.65 357.26, 543.69 358.66 C 541.72 360.07, 540.82 360.56, 539.25 361.06 C 537.68 361.56, 537.04 361.68, 535.86 361.18 C 534.68 360.67, 534.20 360.15, 533.34 358.54 C 532.48 356.93, 532.13 355.86, 531.56 353.14 C 530.99 350.43, 530.73 348.76, 530.48 344.96 C 530.24 341.17, 530.18 338.77, 530.33 334.18 C 530.48 329.59, 530.73 326.87, 531.24 321.99 C 531.75 317.12, 532.16 314.39, 532.88 309.79 C 533.60 305.18, 534.11 302.77, 534.85 298.98 C 535.59 295.20, 536.08 293.48, 536.58 290.86 C 537.08 288.25, 537.15 287.17, 537.33 285.90 C 537.51 284.63, 537.52 284.36, 537.49 284.51 C 537.46 284.66, 537.40 285.12, 537.17 286.65 C 536.93 288.19, 536.79 289.32, 536.33 292.17 C 535.88 295.01, 535.70 296.92, 534.89 300.88 C 534.08 304.85, 533.50 307.24, 532.28 311.97 C 531.06 316.70, 530.27 319.49, 528.77 324.54 C 527.28 329.60, 526.45 332.48, 524.80 337.24 C 523.16 342.01, 522.26 344.47, 520.55 348.37 C 518.84 352.28, 517.94 354.02, 516.25 356.76 C 514.56 359.50, 513.71 360.49, 512.11 362.07 C 510.50 363.65, 509.68 364.06, 508.24 364.66 C 506.79 365.27, 506.11 365.38, 504.89 365.08 C 503.66 364.78, 503.02 364.46, 502.10 363.15 C 501.19 361.85, 500.70 360.93, 500.32 358.56 C 499.93 356.19, 499.85 354.60, 500.16 351.30 C 500.48 348.00, 500.88 345.82, 501.89 342.06 C 502.91 338.31, 503.71 336.02, 505.23 332.51 C 506.75 329.01, 507.73 327.22, 509.48 324.53 C 511.23 321.84, 512.32 320.72, 513.98 319.08 C 515.64 317.43, 516.41 316.96, 517.79 316.29 C 519.16 315.62, 519.78 315.77, 520.86 315.73 C 521.93 315.70, 522.39 316.00, 523.17 316.10 C 523.94 316.20, 524.37 316.37, 524.75 316.25 C 525.12 316.13, 525.27 315.88, 525.04 315.52" style="stroke: black; fill: black;"/><path d="M 597.91,316.32 C 597.67 315.96, 597.22 315.57, 596.41 315.32 C 595.61 315.07, 595.10 314.79, 593.88 315.05 C 592.67 315.31, 591.84 315.43, 590.34 316.61 C 588.84 317.79, 587.96 318.61, 586.38 320.95 C 584.79 323.30, 583.97 325.02, 582.42 328.35 C 580.88 331.68, 579.93 333.85, 578.64 337.60 C 577.34 341.36, 576.73 343.61, 575.96 347.13 C 575.18 350.64, 574.88 352.45, 574.77 355.18 C 574.65 357.90, 574.89 359.05, 575.40 360.75 C 575.91 362.44, 576.33 362.97, 577.29 363.64 C 578.26 364.31, 578.96 364.47, 580.24 364.11 C 581.52 363.75, 582.28 363.35, 583.68 361.84 C 585.07 360.33, 585.83 359.25, 587.22 356.57 C 588.62 353.90, 589.24 352.06, 590.64 348.45 C 592.04 344.85, 592.82 342.42, 594.22 338.55 C 595.63 334.69, 596.45 332.43, 597.65 329.13 C 598.85 325.82, 599.51 324.22, 600.24 322.04 C 600.98 319.86, 601.12 318.97, 601.32 318.22 C 601.53 317.46, 601.46 317.44, 601.27 318.27 C 601.07 319.11, 600.63 319.99, 600.34 322.38 C 600.04 324.77, 599.97 326.63, 599.79 330.24 C 599.61 333.85, 599.54 336.27, 599.43 340.44 C 599.31 344.61, 599.22 347.13, 599.22 351.10 C 599.21 355.06, 599.18 357.14, 599.40 360.26 C 599.62 363.38, 599.80 364.65, 600.30 366.70 C 600.79 368.75, 601.21 369.50, 601.86 370.51 C 602.52 371.52, 602.95 371.49, 603.59 371.74 C 604.23 371.98, 604.61 371.93, 605.06 371.75 C 605.51 371.57, 605.77 371.12, 605.82 370.84 C 605.86 370.56, 605.51 370.34, 605.28 370.34 C 605.06 370.35, 604.97 370.77, 604.71 370.88 C 604.44 370.99, 604.32 371.08, 603.96 370.89 C 603.59 370.70, 603.32 370.83, 602.89 369.93 C 602.46 369.02, 602.17 368.33, 601.80 366.38 C 601.44 364.42, 601.27 363.20, 601.06 360.14 C 600.85 357.09, 600.74 355.02, 600.73 351.10 C 600.73 347.17, 600.81 344.65, 601.02 340.50 C 601.23 336.36, 601.48 333.96, 601.77 330.37 C 602.06 326.78, 602.40 324.98, 602.47 322.54 C 602.54 320.11, 602.49 319.14, 602.14 318.19 C 601.78 317.25, 601.39 317.16, 600.69 317.81 C 600.00 318.46, 599.58 319.29, 598.66 321.44 C 597.75 323.59, 597.29 325.25, 596.11 328.57 C 594.93 331.89, 594.17 334.17, 592.76 338.02 C 591.35 341.87, 590.54 344.30, 589.05 347.81 C 587.57 351.32, 586.72 353.02, 585.34 355.58 C 583.97 358.14, 583.31 359.13, 582.20 360.59 C 581.09 362.05, 580.63 362.44, 579.78 362.88 C 578.92 363.32, 578.52 363.30, 577.91 362.81 C 577.30 362.31, 577.01 361.93, 576.73 360.42 C 576.46 358.91, 576.36 357.86, 576.52 355.27 C 576.69 352.68, 576.81 350.90, 577.54 347.47 C 578.27 344.04, 578.86 341.80, 580.16 338.13 C 581.46 334.47, 582.44 332.33, 584.05 329.14 C 585.67 325.96, 586.72 324.42, 588.23 322.22 C 589.75 320.02, 590.41 319.24, 591.63 318.15 C 592.84 317.07, 593.42 317.05, 594.31 316.79 C 595.19 316.54, 595.41 316.84, 596.07 316.90 C 596.73 316.96, 597.22 317.23, 597.59 317.12 C 597.95 317.00, 598.14 316.68, 597.91 316.32" style="stroke: black; fill: black;"/><path d="M 621.34,289.72 C 621.38 289.58, 621.11 288.84, 620.83 288.97 C 620.55 289.11, 620.20 289.12, 619.94 290.41 C 619.68 291.69, 619.67 292.51, 619.55 295.41 C 619.43 298.32, 619.51 300.53, 619.32 304.93 C 619.13 309.33, 618.94 312.23, 618.59 317.41 C 618.23 322.60, 617.90 325.57, 617.55 330.84 C 617.21 336.11, 617.05 338.91, 616.86 343.77 C 616.67 348.63, 616.61 351.08, 616.58 355.15 C 616.56 359.22, 616.49 361.07, 616.73 364.12 C 616.97 367.18, 617.30 368.51, 617.77 370.42 C 618.24 372.34, 618.56 372.79, 619.07 373.69 C 619.58 374.59, 619.93 374.62, 620.31 374.91 C 620.69 375.20, 620.80 375.15, 620.97 375.15 C 621.14 375.14, 621.18 375.03, 621.15 374.89 C 621.12 374.75, 621.03 374.77, 620.81 374.43 C 620.60 374.10, 620.41 374.07, 620.09 373.21 C 619.76 372.35, 619.55 371.95, 619.19 370.11 C 618.83 368.27, 618.56 366.99, 618.29 363.99 C 618.02 361.00, 617.91 359.18, 617.85 355.15 C 617.79 351.11, 617.83 348.66, 617.99 343.81 C 618.16 338.97, 618.30 336.18, 618.67 330.92 C 619.04 325.65, 619.39 322.69, 619.84 317.51 C 620.28 312.33, 620.51 309.43, 620.91 305.03 C 621.31 300.64, 621.68 298.43, 621.84 295.52 C 622.00 292.61, 621.84 291.79, 621.71 290.49 C 621.58 289.20, 621.40 289.21, 621.19 289.05 C 620.97 288.90, 620.61 289.57, 620.64 289.70 C 620.67 289.84, 621.30 289.87, 621.34 289.72" style="stroke: black; fill: black;"/></svg>